<!-- Generator: Adobe Illustrator 25.4.1, SVG Export Plug-In . SVG Version: 6.00 Build 0)  -->
<svg version="1.1" viewBox="0 0 176 186" xml:space="preserve" xmlns="http://www.w3.org/2000/svg">
<style type="text/css">
	.st0{fill:#E72867;}
	.st1{fill:url(#SVGID_1_);}
	.st2{fill:url(#SVGID_00000158728225486333849770000006740785520283125377_);}
	.st3{fill:url(#SVGID_00000132052795904708341190000014411055709449422497_);}
</style>

<g transform="matrix(2.9032 0 0 2.9032 -167.42 -177)">
	
		<linearGradient id="SVGID_1_" x1="115.23" x2="67.047" y1="120.12" y2="94.74" gradientUnits="userSpaceOnUse">
			<stop stop-color="#4E1948" offset="0"/>
			<stop stop-color="#1C1537" offset="1"/>
		</linearGradient>
		<path class="st1" d="m98.8 118.2-10.8-23.3-8.1 17.6 23.6 10.6c-2.1-1-3.8-2.8-4.7-4.9z" fill="url(#SVGID_1_)"/>
	
	
		
			<linearGradient id="SVGID_00000153664128320968876990000003058145781461022607_" x1="84.629" x2="111.16" y1="62.972" y2="122.51" gradientUnits="userSpaceOnUse">
			<stop stop-color="#A81255" offset="0"/>
			<stop stop-color="#4E1948" offset="1"/>
		</linearGradient>
		<path d="m116.5 110.2-19.5-42.2c-0.1-0.1-0.1-0.3-0.2-0.4l-0.1-0.3c0-0.1-0.1-0.1-0.1-0.2 0.7 1.4 1.2 2.9 1.2 4.6 0 1.4-0.3 2.8-0.9 4l-8.9 19.2 10.7 23.3c1.5 3.4 4.9 5.8 8.9 5.8 5.4 0 9.7-4.3 9.7-9.7 0.1-1.5-0.3-2.8-0.8-4.1z" fill="url(#SVGID_00000153664128320968876990000003058145781461022607_)"/>
	
	
		<linearGradient id="SVGID_00000125600966001802085620000009223590774598003856_" x1="64.931" x2="90.885" y1="123.48" y2="63.939" gradientUnits="userSpaceOnUse">
		<stop stop-color="#E72867" offset="0"/>
		<stop stop-color="#A81255" offset="1"/>
	</linearGradient>
	<path d="m88 62c-3.8 0-7 2.2-8.6 5.3l-0.1 0.3c-0.1 0.1-0.1 0.3-0.2 0.4l-19.5 42.2c-0.6 1.2-0.9 2.6-0.9 4.1 0 5.4 4.3 9.7 9.7 9.7 4 0 7.4-2.4 8.9-5.8l19.6-42.4c0.6-1.2 0.9-2.6 0.9-4-0.1-5.4-4.4-9.8-9.8-9.8z" fill="url(#SVGID_00000125600966001802085620000009223590774598003856_)"/>
</g>

</svg>
