<!-- Generator: Adobe Illustrator 25.2.0, SVG Export Plug-In . SVG Version: 6.00 Build 0)  -->
<svg version="1.1" viewBox="0 0 125.5 129" xml:space="preserve" xmlns="http://www.w3.org/2000/svg">
<style type="text/css">
	.st0{fill:#2C2255;}
	.st1{fill:#F7941E;}
	.st2{fill:url(#SVGID_1_);}
	.st3{fill:url(#SVGID_2_);}
	.st4{fill:url(#SVGID_3_);}
	.st5{fill:#FFFFFF;}
	.st6{font-family:'OpenSans';}
	.st7{font-size:16px;}
</style>
<path class="st0" d="m38.1 76.9h-16.7c2.2 7.6 6.3 14.4 12.4 20.4 9.6 9.6 21.1 14.4 34.7 14.4 2.7 0 5.3-0.2 7.9-0.6 10.2-1.5 19.1-6.1 26.7-13.8 6.1-6 10.2-12.8 12.4-20.4h-16.7z"/>

	<path class="st0" d="m28.9 54.2h-8.7c-0.3 1.9-0.5 3.9-0.6 5.9h97.8c-0.1-2-0.3-4-0.6-5.9"/>
	<path class="st0" d="m19.5 65.6c0.1 2 0.3 4 0.6 5.9h96.4c0.3-1.9 0.5-3.9 0.6-5.9"/>

<path class="st0" d="m115.4 48.7c-2.2-7.6-6.4-14.5-12.4-20.5-7.7-7.6-16.5-12.2-26.7-13.7-2.6-0.4-5.2-0.6-7.9-0.6-13.5 0-25 4.8-34.7 14.3-6 6.1-10.1 12.9-12.4 20.5"/>

	<path class="st1" d="m16.6 62.8c0-25.8 19.4-47.3 44.6-51h-1.9c-28.3-0.1-51.2 22.8-51.2 51s23 51.1 51.3 51.1h1.9c-25.3-3.8-44.7-25.2-44.7-51.1z"/>










	
		<linearGradient id="SVGID_1_" x1="68.4" x2="68.4" y1="12.576" y2="86.211" gradientTransform="matrix(1,0,0,-1,0,131)" gradientUnits="userSpaceOnUse">
		<stop stop-color="#473788" offset=".3033"/>
		<stop stop-color="#2C2255" offset=".872"/>
	</linearGradient>
	<path class="st2" d="m101.7 60.1c-0.2-2-0.5-4-1-5.9h-64.6c-0.5 1.9-0.8 3.9-1 5.9z"/>
	
		<linearGradient id="SVGID_2_" x1="68.4" x2="68.4" y1="12.575" y2="86.21" gradientTransform="matrix(1,0,0,-1,0,131)" gradientUnits="userSpaceOnUse">
		<stop stop-color="#473788" offset=".3033"/>
		<stop stop-color="#2C2255" offset=".872"/>
	</linearGradient>
	<path class="st3" d="m101.7 65.6h-66.6c0.2 2 0.5 4 1 5.9h64.5c0.5-1.9 0.9-3.9 1.1-5.9z"/>
	
		<linearGradient id="SVGID_3_" x1="68.4" x2="68.4" y1="12.577" y2="86.208" gradientTransform="matrix(1,0,0,-1,0,131)" gradientUnits="userSpaceOnUse">
		<stop stop-color="#473788" offset=".3033"/>
		<stop stop-color="#2C2255" offset=".8631"/>
	</linearGradient>
	<path class="st4" d="m68.4 96.2c13.4 0 24.9-7.9 30.3-19.3h-60.6c5.3 11.4 16.9 19.3 30.3 19.3z"/>


	<path class="st5" d="m30.2 65.6h87.1c0-0.9 0.1-1.7 0.1-2.6 0-1 0-1.9-0.1-2.8h-97.8c-0.1 0.9-0.1 1.9-0.1 2.8s0 1.8 0.1 2.6z"/>
	<path class="st5" d="m37.9 48.7h-16.5c-0.5 1.8-0.9 3.6-1.2 5.5h96.2c-0.3-1.9-0.8-3.7-1.3-5.5"/>
	<path class="st5" d="m110 71.5h-89.8c0.3 1.9 0.7 3.7 1.2 5.5h94c0.5-1.8 1-3.6 1.3-5.5z"/>


</svg>
