<svg width="562.25" height="566.93" inkscape:version="1.1.2 (0a00cf5339, 2022-02-04)" sodipodi:docname="estacio.svg" version="1.1" viewBox="0 0 148.76 150" xmlns="http://www.w3.org/2000/svg" xmlns:inkscape="http://www.inkscape.org/namespaces/inkscape" xmlns:sodipodi="http://sodipodi.sourceforge.net/DTD/sodipodi-0.dtd">
 <sodipodi:namedview width="148.761mm" bordercolor="#666666" borderopacity="1.0" inkscape:current-layer="svg41" inkscape:cx="1125.1274" inkscape:cy="144.51178" inkscape:document-units="mm" inkscape:pagecheckerboard="0" inkscape:pageopacity="0.0" inkscape:pageshadow="2" inkscape:window-height="1011" inkscape:window-maximized="1" inkscape:window-width="1920" inkscape:window-x="0" inkscape:window-y="0" inkscape:zoom="0.24219479" pagecolor="#ffffff" showgrid="false" units="px"/>
 <defs>
  <clipPath id="clipPath196">
   <path d="m0 0h595.28v841.89h-595.28z"/>
  </clipPath>
 </defs>
 <g transform="matrix(3.1939 0 0 -3.1939 -674.41 385.84)" clip-path="url(#clipPath196)">
  <g transform="translate(214.05,99.637)">
   <path d="m0 0 18.078 18.058c1.277 1.297 3.373 1.297 4.649 0l18.059-18.058c1.277-1.277 1.277-3.352 0-4.63l-18.059-18.057c-1.276-1.298-3.372-1.298-4.649 0l-18.078 18.057c-1.277 1.278-1.277 3.353 0 4.63" fill="#fff"/>
  </g>
  <g transform="translate(234.44,76.73)">
   <path d="m0 0c-0.638 0-1.297 0.26-1.796 0.738l-18.058 18.079c-0.479 0.479-0.738 1.137-0.738 1.776l7.782-0.439 0.499-8.481 0.479 8.421 10.695-0.639 0.598-10.076-7.742-0.459 7.782-0.46z" fill="#28acc0"/>
  </g>
  <g transform="translate(245.64,86.866)">
   <path d="m0 0-0.08-0.08-10.556-0.618 0.599 10.017 10.616 0.618zm9.398 10.456c0-0.639-0.239-1.297-0.738-1.776l-6.505-6.525-0.459 7.862zm-11.633-12.671-7.163-7.183c-0.499-0.479-1.138-0.739-1.796-0.739l0.499 8.401z" fill="#28acc0"/>
  </g>
  <g transform="translate(234.44,117.91)">
   <path d="m0 0c0.659 0 1.297-0.26 1.796-0.738l18.058-18.079c0.499-0.479 0.739-1.137 0.739-1.775l-7.762 0.438-0.499 8.481-0.499-8.421-10.676 0.639-0.598 10.076 7.742 0.459-7.802 0.459z" fill="#7ac6c0"/>
  </g>
  <g transform="translate(225.48,109.99)">
   <path d="m0 0 7.164 7.183c0.498 0.479 1.157 0.739 1.795 0.739l-0.479-8.402zm-2.215-2.215 0.06 0.08 10.555 0.618-0.578-10.017-10.636-0.618zm-8.68-8.68 6.525 6.525 0.459-7.862-7.722-0.439c0 0.638 0.259 1.297 0.738 1.776" fill="#c0e1d7"/>
  </g>
 </g>
 <g transform="matrix(3.1939,0,0,-3.1939,74.381,9.283)">
  <path d="m0 0 1.44-19.136 19.136-1.44-19.136-1.44-1.44-19.136-1.44 19.136-19.136 1.44 19.136 1.44z" fill="#fff"/>
 </g>
</svg>
