<!-- Created with Inkscape (http://www.inkscape.org/) -->
<svg width="550mm" height="150mm" version="1.1" viewBox="0 0 550 150" xmlns="http://www.w3.org/2000/svg">
 <defs>
  <clipPath id="clipPath196">
   <path d="m0 0h595.28v841.89h-595.28z"/>
  </clipPath>
 </defs>
 <g transform="translate(171.28 -59.339)">
  <g transform="matrix(3.1939 0 0 -3.1939 -845.69 445.18)">
   <g clip-path="url(#clipPath196)">
    <g transform="translate(281.54 85.007)">
     <path d="m0 0h-6.386c-2.468 0-4.381 0.185-5.718 0.576-1.314 0.369-2.444 1.038-3.366 2.006-2.029 2.121-3.044 5.095-3.044 8.923 0 4.219 1.291 7.447 3.897 9.637 0.83 0.692 1.706 1.175 2.628 1.452s2.144 0.416 3.689 0.416h8.3v-4.105h-6.386c-1.66 0-2.882-0.115-3.643-0.345-0.784-0.231-1.43-0.669-1.937-1.337-0.346-0.462-0.576-0.923-0.692-1.361-0.115-0.438-0.207-1.222-0.299-2.375h12.957v-4.081h-12.957c0.161-1.959 0.737-3.342 1.752-4.127 0.991-0.783 2.674-1.175 5.026-1.175h6.179zm19.136 5.279c0-1.037-0.254-2.005-0.784-2.927-0.507-0.923-1.153-1.568-1.936-1.914-0.669-0.3-1.937-0.438-3.782-0.438h-9.545v3.597h8.231c1.061 0 1.775 0.023 2.145 0.069 0.76 0.092 1.152 0.553 1.152 1.383 0 0.738-0.3 1.222-0.899 1.453-0.323 0.115-0.968 0.161-1.914 0.161h-2.789c-1.937 0-3.366 0.346-4.266 1.037-1.268 0.992-1.89 2.398-1.89 4.22 0 1.752 0.645 3.112 1.937 4.08 0.691 0.531 1.936 0.808 3.735 0.808h9.844v-3.597h-8.184c-0.9 0-1.499-0.047-1.776-0.138-0.53-0.208-0.784-0.669-0.784-1.338 0-0.783 0.323-1.268 0.969-1.475 0.346-0.116 1.014-0.185 2.029-0.185h2.697c1.844 0 3.274-0.392 4.288-1.222 1.015-0.83 1.522-2.029 1.522-3.574m13.557-5.279h-3.366c-2.029 0-3.458 0.461-4.289 1.406-0.853 0.946-1.268 2.582-1.268 4.911v6.894h-2.928v3.597h2.928v6.202h4.634v-6.202h4.289v-3.597h-4.289v-6.087c0-1.452 0.162-2.398 0.462-2.859 0.322-0.438 0.968-0.668 1.982-0.668h1.845zm10.859 10.214v-3.574h-2.19c-1.153 0-1.729-0.531-1.729-1.568 0-0.991 0.83-1.475 2.49-1.475h1.429v-3.597h-1.199c-1.545 0-2.49 0-2.859 0.023-1.13 0.115-2.006 0.415-2.628 0.877-1.291 0.944-1.937 2.305-1.937 4.103 0 1.153 0.277 2.167 0.853 3.067 0.554 0.876 1.291 1.475 2.214 1.774 0.784 0.254 2.052 0.37 3.804 0.37zm0 6.594v-3.597h-7.401v3.597zm0 5.233v-3.366h-2.306zm26.883-22.041h-6.317c-1.683 0-3.021 0.162-4.012 0.507-1.015 0.346-1.891 0.945-2.651 1.798-1.453 1.615-2.168 3.712-2.168 6.271 0 2.906 0.853 5.096 2.583 6.571 1.291 1.107 3.366 1.661 6.248 1.661h6.317v-3.597h-5.51c-1.73 0-2.997-0.369-3.759-1.107-0.76-0.737-1.152-1.96-1.152-3.642 0-1.707 0.415-2.952 1.268-3.713s2.236-1.152 4.15-1.152h5.003zm8.231 18.537h-4.634v4.473h4.634zm0-18.537h-4.634v16.808h4.634zm-35.114 18.675v3.366l0.669 0.969h4.242l-4.519-4.335zm0-18.675v3.597h3.919v3.043h-3.919v3.574h3.919v0.276c0 1.038-0.253 1.73-0.76 2.121-0.508 0.392-1.43 0.6-2.767 0.6h-0.392v3.597h0.392c1.798 0 2.997-0.07 3.597-0.185 1.245-0.23 2.259-0.784 3.043-1.683 1.015-1.176 1.522-2.997 1.522-5.464v-9.476zm47.426 13.487h-0.093c-2.72 0-4.08-1.682-4.08-5.095 0-3.366 1.406-5.049 4.173-5.072v-3.55h-0.162c-2.72 0-4.842 0.76-6.409 2.305-1.545 1.545-2.329 3.666-2.329 6.363 0 2.629 0.807 4.726 2.398 6.271 1.614 1.545 3.758 2.329 6.479 2.329h0.023zm4.173-5.095c0 3.366-1.406 5.049-4.173 5.095v3.551c2.789 0 4.98-0.784 6.548-2.329 1.567-1.545 2.351-3.712 2.351-6.478 0-2.628-0.807-4.704-2.421-6.202-1.591-1.499-3.735-2.237-6.478-2.259v3.55h0.046c2.743 0 4.127 1.683 4.127 5.072" fill="#1d1d1b"/>
    </g>
    <g transform="translate(214.05 99.637)">
     <path d="m0 0 18.078 18.058c1.277 1.297 3.373 1.297 4.649 0l18.059-18.058c1.277-1.277 1.277-3.352 0-4.63l-18.059-18.057c-1.276-1.298-3.372-1.298-4.649 0l-18.078 18.057c-1.277 1.278-1.277 3.353 0 4.63" fill="#fff"/>
    </g>
    <g transform="translate(234.44 76.73)">
     <path d="m0 0c-0.638 0-1.297 0.26-1.796 0.738l-18.058 18.079c-0.479 0.479-0.738 1.137-0.738 1.776l7.782-0.439 0.499-8.481 0.479 8.421 10.695-0.639 0.598-10.076-7.742-0.459 7.782-0.46z" fill="#28acc0"/>
    </g>
    <g transform="translate(245.64 86.866)">
     <path d="m0 0-0.08-0.08-10.556-0.618 0.599 10.017 10.616 0.618zm9.398 10.456c0-0.639-0.239-1.297-0.738-1.776l-6.505-6.525-0.459 7.862zm-11.633-12.671-7.163-7.183c-0.499-0.479-1.138-0.739-1.796-0.739l0.499 8.401z" fill="#28acc0"/>
    </g>
    <g transform="translate(234.44 117.91)">
     <path d="m0 0c0.659 0 1.297-0.26 1.796-0.738l18.058-18.079c0.499-0.479 0.739-1.137 0.739-1.775l-7.762 0.438-0.499 8.481-0.499-8.421-10.676 0.639-0.598 10.076 7.742 0.459-7.802 0.459z" fill="#7ac6c0"/>
    </g>
    <g transform="translate(225.48 109.99)">
     <path d="m0 0 7.164 7.183c0.498 0.479 1.157 0.739 1.795 0.739l-0.479-8.402zm-2.215-2.215 0.06 0.08 10.555 0.618-0.578-10.017-10.636-0.618zm-8.68-8.68 6.525 6.525 0.459-7.862-7.722-0.439c0 0.638 0.259 1.297 0.738 1.776" fill="#c0e1d7"/>
    </g>
   </g>
  </g>
  <g transform="matrix(3.1939 0 0 -3.1939 -96.899 68.622)">
   <path d="m0 0 1.44-19.136 19.136-1.44-19.136-1.44-1.44-19.136-1.44 19.136-19.136 1.44 19.136 1.44z" fill="#fff"/>
  </g>
 </g>
</svg>
