<?xml version="1.0" encoding="UTF-8"?>
<svg width="2048" height="2048" version="1.1" viewBox="0 0 541.87 541.87" xmlns="http://www.w3.org/2000/svg">
 <rect x="75.869" y="106.66" width="350.82" height="360.9" fill="#fff" fill-opacity=".96957" stroke="#c87137" stroke-width=".035019"/>
 <path d="m271.08 5.0792c-149.62 0-270.76 118.92-271.03 265.73h-0.047877v205.71h0.047877c0.071805 33.296 27.606 60.267 61.564 60.267h209.49c77.923-0.049 147.39-32.892 197.49-83.944 45.763-46.63 73.275-111.46 73.275-181.79 5e-5 -40.273-9.1251-78.446-25.46-112.64-43.215-90.467-136.89-153.09-245.57-153.09zm55.053 109.42c45.498 0 88.455 34.17 88.455 81.309 0 4.3725 0.026 8.7476-0.70215 13.705-1.2607 12.54-12.945 21.553-25.668 19.785-12.723-1.7887-21.357-13.639-19.004-26.036 0.21568-1.415 0.29251-3.6366 0.29251-7.4559 0-26.732-22.299-37.055-43.38-37.055-21.076 0-40.072 17.384-40.098 37.055 0.36423 22.744 0 45.313 0 68.022l39.119-0.2869c30.544-0.62042 30.888 44.492 0.35232 44.28l-39.463 0.28691c-0.096 18.294 0.14375 14.986 0.048 24.199 0 0 0.33082 22.376-0.34992 39.331-4.7218 49.812-47.959 89.619-99.915 89.619-55.079 0-100.44-44.148-100.44-98.301 1.6537-55.688 46.927-99.492 103.96-98.989l31.814-0.23509v44.201l-31.814 0.2866h-0.16786c-31.338 0.90972-58.202 21.788-58.705 54.709 0 29.988 24.705 54.02 55.37 54.02 30.623 0 55.132-21.854 55.132-53.968l-0.048-167.41c0.016-3.1073 0.11975-5.5767 0.46737-9.0043 5.1691-40.945 42.507-72.151 84.776-72.151z" fill="#51a2da" stroke-width="2.6468"/>
</svg>
