<svg width="1024" height="1024" inkscape:version="1.1.2 (0a00cf5339, 2022-02-04)" sodipodi:docname="laravel.svg" version="1.1" viewBox="0 0 270.93 270.93" xmlns="http://www.w3.org/2000/svg" xmlns:inkscape="http://www.inkscape.org/namespaces/inkscape" xmlns:sodipodi="http://sodipodi.sourceforge.net/DTD/sodipodi-0.dtd">
 <sodipodi:namedview bordercolor="#666666" borderopacity="1.0" inkscape:current-layer="layer1" inkscape:cx="397.07687" inkscape:cy="196.73025" inkscape:document-units="mm" inkscape:pagecheckerboard="0" inkscape:pageopacity="0.0" inkscape:pageshadow="2" inkscape:window-height="1011" inkscape:window-maximized="1" inkscape:window-width="1920" inkscape:window-x="0" inkscape:window-y="0" inkscape:zoom="0.69130191" pagecolor="#ffffff" showgrid="false" units="px"/>
 <g inkscape:groupmode="layer" inkscape:label="Camada 1">
  <path d="m262.71 63.66c-0.0313-0.12182-0.10091-0.22848-0.14378-0.3456-0.08-0.21698-0.14953-0.43709-0.26404-0.63635-0.0774-0.13437-0.18979-0.24364-0.28076-0.36651-0.12025-0.16208-0.22273-0.33462-0.36651-0.47735-0.11764-0.11921-0.26822-0.20495-0.40102-0.30848-0.15058-0.11764-0.28495-0.25148-0.45225-0.34873 0 0-1e-3 0-3e-3 -0.0014-1e-3 0-1e-3 -0.0014-3e-3 -0.0028l-49.313-28.392c-1.2685-0.7304-2.8317-0.7304-4.1002 0l-49.312 28.389c-1e-3 0-1e-3 0.0014-3e-3 0.0028-1e-3 0-3e-3 0-3e-3 0.0014-0.16731 0.09673-0.30272 0.23109-0.45226 0.34873-0.13279 0.10352-0.28337 0.19084-0.40101 0.30848-0.14273 0.14274-0.24626 0.31527-0.36651 0.47735-0.0915 0.12287-0.20338 0.23371-0.28077 0.36651-0.11502 0.1992-0.18403 0.42036-0.26403 0.63635-0.0419 0.11764-0.11084 0.2243-0.14378 0.3456-0.0926 0.34455-0.14221 0.70552-0.14221 1.0735v53.921l-41.094 23.659v-105.49c0-0.36651-0.0523-0.72763-0.14274-1.0735-0.0313-0.12182-0.10091-0.22796-0.14379-0.3456-0.08-0.21698-0.14953-0.43709-0.26403-0.63635-0.0774-0.13437-0.18926-0.24364-0.28076-0.36651-0.12025-0.16208-0.22273-0.33462-0.36651-0.47735-0.11764-0.11921-0.26821-0.20443-0.40102-0.30847-0.15057-0.11764-0.28494-0.25201-0.45225-0.34873 0 0-1e-3 0-3e-3 -0.0014-1e-3 0-1e-3 -0.0014-3e-3 -0.0028l-49.311-28.39c-1.2685-0.7304-2.8317-0.7304-4.1002 0l-49.312 28.39c-0.0014 0-0.0014 0.0014-0.0028 0.0028-0.0014 0-0.0028 0-0.0028 0.0014-0.16731 0.09673-0.30325 0.2311-0.45226 0.34873-0.1328 0.10404-0.28338 0.19084-0.40102 0.30847-0.14221 0.14274-0.24626 0.31527-0.36651 0.47735-0.0915 0.12287-0.20338 0.23371-0.28076 0.36651-0.11502 0.1992-0.18404 0.42036-0.26403 0.63635-0.041831 0.11764-0.11084 0.2243-0.14378 0.3456-0.092539 0.34455-0.14274 0.70552-0.14274 1.0735v168.89c0 1.4705 0.78572 2.8276 2.0598 3.5621l98.623 56.779c0.21593 0.12339 0.44807 0.19763 0.67785 0.2792 0.10771 0.0367 0.20757 0.10247 0.31842 0.13123 0.34455 0.0915 0.69997 0.13803 1.0541 0.13803 0.35396 0 0.70824-0.0471 1.0541-0.13803 0.0957-0.0261 0.18247-0.0815 0.27659-0.11503 0.24363-0.0841 0.48989-0.16469 0.7179-0.29593l98.623-56.779c1.2741-0.73318 2.0598-2.0916 2.0598-3.5621v-53.921l47.252-27.205c1.274-0.73318 2.0598-2.0916 2.0598-3.5621v-56.298c-4e-3 -0.36546-0.0528-0.72628-0.14692-1.0707zm-151.91 137.33-41.013-23.211 43.072-24.798 1e-3 -1e-3 47.26-27.209 41.049 23.633-30.118 17.192zm94.522-105.49v46.814l-41.094-23.658v-46.814l17.257 9.9352zm4.1085-54.414 41.076 23.648-41.076 23.648-41.076-23.648zm-126.57 119.68-17.257 9.9352v-103.11l41.094-23.658v103.11zm-21.367-147.59 41.076 23.648-41.076 23.648-41.076-23.648zm-45.202 30.757 41.094 23.658v110.22c0 3e-3 0.0014 4e-3 0.0014 5e-3 0 3e-3 -0.0014 5e-3 -0.0014 0.0104 0 0.15789 0.04182 0.30586 0.06221 0.46061 0.02615 0.20182 0.03137 0.40678 0.08156 0.60038 0.0014 3e-3 0.0014 5e-3 0.0027 0.0104 0.04183 0.16208 0.13019 0.30691 0.19345 0.46219 0.07058 0.17149 0.12182 0.35292 0.21593 0.51343 0.0014 4e-3 0.0028 0.0104 0.0052 0.0104 0.08417 0.14535 0.206 0.26403 0.30691 0.3984 0.11189 0.14535 0.206 0.30429 0.33775 0.43448 0.0041 4e-3 0.0052 0.0104 0.01045 0.0157 0.11607 0.11503 0.26299 0.19659 0.39265 0.2975 0.14639 0.11503 0.2792 0.24625 0.44284 0.34141 0.0052 3e-3 0.01045 4e-3 0.01568 5e-3 0.0052 3e-3 0.01045 0.0105 0.01568 0.0105l47.226 26.728v47.276l-90.404-52.048v-159.41zm189.03 159.41-90.404 52.048v-47.285l66.952-38.219 23.452-13.387zm49.311-84.688-41.094 23.658v-46.814l41.094-23.658z" fill="#ef3b2d" stroke-width="1.3833"/>
 </g>
</svg>
