<?xml version="1.0" encoding="UTF-8" standalone="no"?>
<!DOCTYPE svg PUBLIC "-//W3C//DTD SVG 1.1//EN" "http://www.w3.org/Graphics/SVG/1.1/DTD/svg11.dtd">
<svg width="100%" height="100%" viewBox="0 0 64 64" version="1.1" xmlns="http://www.w3.org/2000/svg" xmlns:xlink="http://www.w3.org/1999/xlink" xml:space="preserve" xmlns:serif="http://www.serif.com/" style="fill-rule:evenodd;clip-rule:evenodd;stroke-linejoin:round;stroke-miterlimit:2;">
    <g transform="matrix(1.17555,0,0,1.25487,0.155892,0.216938)">
        <rect x="-0.133" y="-0.173" width="54.443" height="51.001"/>
    </g>
    <g transform="matrix(0.699185,0,0,0.699185,3.46903,12.1717)">
        <g transform="matrix(33.0466,0,0,33.0466,3.03165,39.9425)">
            <path d="M0.483,-0.003C0.5,-0.002 0.517,0 0.533,-0.004C0.545,-0.013 0.551,-0.02 0.55,-0.031C0.547,-0.059 0.55,-0.087 0.553,-0.115L0.553,-0.133C0.553,-0.146 0.549,-0.149 0.537,-0.146C0.535,-0.145 0.44,-0.142 0.437,-0.142C0.397,-0.137 0.358,-0.139 0.319,-0.141C0.296,-0.142 0.274,-0.146 0.251,-0.146C0.239,-0.146 0.219,-0.149 0.198,-0.146C0.191,-0.145 0.188,-0.149 0.187,-0.156C0.186,-0.169 0.183,-0.181 0.183,-0.195C0.186,-0.252 0.194,-0.316 0.196,-0.374C0.198,-0.408 0.198,-0.531 0.197,-0.558C0.197,-0.569 0.2,-0.582 0.2,-0.593C0.202,-0.645 0.193,-0.693 0.186,-0.695C0.179,-0.696 0.161,-0.697 0.134,-0.697L0.069,-0.697C0.056,-0.697 0.051,-0.696 0.052,-0.679C0.054,-0.656 0.053,-0.628 0.053,-0.606L0.053,-0.554C0.054,-0.52 0.045,-0.485 0.049,-0.45C0.051,-0.429 0.054,-0.407 0.052,-0.385C0.049,-0.35 0.048,-0.316 0.052,-0.281C0.053,-0.277 0.052,-0.273 0.052,-0.27C0.051,-0.233 0.05,-0.196 0.05,-0.159C0.05,-0.125 0.05,-0.091 0.043,-0.057C0.041,-0.045 0.04,-0.034 0.04,-0.022C0.04,-0.008 0.042,-0.007 0.057,-0.005C0.071,-0.003 0.086,-0.003 0.1,-0.004C0.128,-0.006 0.156,-0.005 0.184,-0.006C0.223,-0.009 0.263,-0.004 0.302,-0.004C0.362,-0.004 0.423,-0.007 0.483,-0.003Z" style="fill:white;fill-rule:nonzero;"/>
        </g>
        <g transform="matrix(33.0466,0,0,33.0466,22.6283,39.9425)">
            <path d="M0.049,0C0.083,-0.005 0.123,-0.004 0.164,-0.004C0.172,-0.011 0.172,-0.011 0.171,-0.018C0.169,-0.029 0.17,-0.04 0.171,-0.051C0.173,-0.066 0.173,-0.082 0.173,-0.098C0.173,-0.131 0.172,-0.164 0.172,-0.197C0.173,-0.252 0.17,-0.307 0.172,-0.362C0.174,-0.421 0.172,-0.481 0.176,-0.54C0.179,-0.579 0.174,-0.619 0.178,-0.658C0.178,-0.667 0.178,-0.675 0.176,-0.684C0.176,-0.69 0.175,-0.696 0.167,-0.7C0.132,-0.699 0.098,-0.701 0.062,-0.697C0.049,-0.696 0.044,-0.692 0.043,-0.68C0.041,-0.659 0.043,-0.639 0.045,-0.618C0.049,-0.58 0.049,-0.536 0.046,-0.498C0.045,-0.478 0.043,-0.458 0.044,-0.438C0.046,-0.389 0.041,-0.341 0.043,-0.292C0.044,-0.254 0.039,-0.216 0.04,-0.178C0.041,-0.141 0.044,-0.104 0.041,-0.068C0.041,-0.063 0.041,-0.059 0.042,-0.055C0.044,-0.042 0.045,-0.03 0.041,-0.018C0.039,-0.011 0.041,-0.005 0.049,0Z" style="fill:white;fill-rule:nonzero;"/>
        </g>
        <g transform="matrix(33.0466,0,0,33.0466,29.8324,39.9425)">
            <path d="M0.061,-0.001C0.074,-0.001 0.097,-0.001 0.11,-0.002C0.125,-0.004 0.14,-0.002 0.154,-0.005C0.161,-0.006 0.169,-0.007 0.17,-0.014C0.172,-0.022 0.175,-0.03 0.176,-0.039L0.176,-0.1C0.176,-0.112 0.179,-0.124 0.178,-0.136C0.175,-0.204 0.179,-0.253 0.181,-0.303C0.182,-0.339 0.184,-0.375 0.183,-0.411C0.183,-0.416 0.184,-0.421 0.185,-0.425C0.186,-0.432 0.189,-0.433 0.193,-0.428C0.194,-0.426 0.192,-0.422 0.207,-0.405L0.279,-0.315C0.296,-0.294 0.312,-0.272 0.329,-0.251C0.348,-0.227 0.367,-0.202 0.385,-0.177C0.402,-0.152 0.422,-0.128 0.437,-0.103L0.475,-0.039C0.481,-0.028 0.489,-0.019 0.496,-0.01C0.498,-0.007 0.501,-0.003 0.505,-0.003C0.52,-0.003 0.535,0 0.55,-0.002C0.566,-0.005 0.582,-0.001 0.598,-0.004C0.613,-0.006 0.615,-0.009 0.615,-0.024C0.615,-0.073 0.614,-0.14 0.616,-0.189C0.618,-0.245 0.621,-0.301 0.62,-0.357C0.62,-0.382 0.62,-0.407 0.621,-0.432C0.622,-0.471 0.625,-0.509 0.626,-0.547C0.627,-0.589 0.62,-0.632 0.626,-0.674C0.628,-0.687 0.624,-0.691 0.611,-0.695C0.607,-0.696 0.602,-0.698 0.597,-0.698C0.513,-0.697 0.503,-0.705 0.496,-0.689C0.492,-0.678 0.496,-0.634 0.497,-0.623C0.5,-0.58 0.496,-0.537 0.495,-0.495C0.495,-0.441 0.492,-0.388 0.489,-0.33C0.488,-0.318 0.49,-0.3 0.49,-0.283C0.49,-0.275 0.489,-0.267 0.488,-0.26C0.487,-0.256 0.486,-0.252 0.481,-0.257C0.466,-0.275 0.449,-0.299 0.437,-0.32C0.421,-0.346 0.406,-0.372 0.386,-0.395C0.356,-0.43 0.332,-0.464 0.308,-0.501C0.28,-0.548 0.262,-0.583 0.242,-0.612C0.224,-0.637 0.214,-0.659 0.197,-0.684C0.19,-0.695 0.182,-0.696 0.171,-0.696C0.157,-0.695 0.144,-0.697 0.13,-0.696C0.112,-0.696 0.093,-0.7 0.075,-0.697C0.055,-0.694 0.052,-0.691 0.055,-0.669C0.057,-0.659 0.057,-0.649 0.056,-0.637C0.054,-0.608 0.052,-0.578 0.051,-0.548C0.049,-0.45 0.042,-0.329 0.046,-0.23C0.046,-0.22 0.049,-0.21 0.048,-0.2C0.045,-0.174 0.042,-0.147 0.043,-0.12C0.044,-0.091 0.04,-0.063 0.041,-0.035C0.041,-0.031 0.034,-0.001 0.061,-0.001Z" style="fill:white;fill-rule:nonzero;"/>
        </g>
        <g transform="matrix(33.0466,0,0,33.0466,51.8415,39.9425)">
            <path d="M0.452,0.001C0.484,-0.001 0.516,-0.003 0.546,-0.015C0.568,-0.024 0.589,-0.034 0.608,-0.047C0.623,-0.056 0.623,-0.055 0.636,-0.044C0.654,-0.029 0.671,-0.012 0.692,-0.001C0.703,0.005 0.707,0.005 0.713,-0.005C0.724,-0.025 0.74,-0.04 0.757,-0.055C0.773,-0.07 0.773,-0.077 0.758,-0.093C0.756,-0.095 0.754,-0.096 0.753,-0.098C0.74,-0.113 0.725,-0.126 0.71,-0.139C0.704,-0.144 0.703,-0.149 0.708,-0.156C0.714,-0.168 0.723,-0.179 0.73,-0.191C0.741,-0.212 0.745,-0.235 0.75,-0.258C0.756,-0.285 0.761,-0.313 0.759,-0.342C0.754,-0.388 0.746,-0.433 0.736,-0.478C0.732,-0.496 0.725,-0.513 0.715,-0.528C0.707,-0.541 0.696,-0.553 0.687,-0.566C0.674,-0.587 0.659,-0.607 0.641,-0.625C0.61,-0.656 0.574,-0.678 0.532,-0.691C0.476,-0.708 0.396,-0.709 0.329,-0.691C0.316,-0.687 0.303,-0.681 0.289,-0.677C0.221,-0.656 0.16,-0.623 0.109,-0.571C0.098,-0.56 0.064,-0.495 0.059,-0.479C0.045,-0.429 0.037,-0.378 0.041,-0.325C0.044,-0.275 0.05,-0.231 0.078,-0.19C0.103,-0.154 0.129,-0.119 0.156,-0.086C0.18,-0.055 0.222,-0.035 0.26,-0.025C0.295,-0.016 0.329,-0.008 0.365,-0.004C0.394,-0.001 0.423,0.002 0.452,0.001ZM0.421,-0.127C0.38,-0.126 0.34,-0.131 0.303,-0.148C0.255,-0.17 0.218,-0.206 0.196,-0.255C0.193,-0.262 0.19,-0.269 0.186,-0.276C0.154,-0.327 0.175,-0.408 0.182,-0.428C0.189,-0.446 0.2,-0.463 0.213,-0.478C0.231,-0.498 0.249,-0.518 0.271,-0.534C0.307,-0.56 0.337,-0.567 0.371,-0.57C0.386,-0.571 0.401,-0.572 0.411,-0.572C0.44,-0.572 0.464,-0.571 0.487,-0.565C0.504,-0.561 0.52,-0.552 0.534,-0.541C0.562,-0.52 0.588,-0.498 0.607,-0.468C0.629,-0.432 0.635,-0.41 0.633,-0.337C0.632,-0.298 0.631,-0.29 0.627,-0.282L0.611,-0.245C0.604,-0.232 0.601,-0.232 0.59,-0.24C0.574,-0.251 0.559,-0.264 0.539,-0.269C0.53,-0.272 0.525,-0.27 0.518,-0.264C0.496,-0.246 0.483,-0.221 0.467,-0.199C0.457,-0.185 0.459,-0.178 0.471,-0.166L0.489,-0.149C0.495,-0.142 0.495,-0.14 0.485,-0.137C0.464,-0.13 0.443,-0.127 0.421,-0.127Z" style="fill:white;fill-rule:nonzero;"/>
        </g>
    </g>
</svg>
