<?xml version="1.0" encoding="UTF-8"?>
<svg width="4096" height="4096" version="1.1" viewBox="0 0 1083.7 1083.7" xmlns="http://www.w3.org/2000/svg">
 <g transform="matrix(14.094 0 0 14.094 301.53 -17.49)" stroke-width=".26458">
  <path class="cls-1" d="m35.571 31.84c-4.0508-17.87-12.494-22.627-14.647-25.99a38.251 38.251 0 0 1-2.3548-4.609c-0.11377 1.5875-0.32279 2.5876-1.6722 3.7915-2.7093 2.4156-14.216 11.792-15.184 32.097-0.90223 18.931 13.917 30.604 15.875 31.811 1.5055 0.74083 3.339 0.01588 4.2333-0.6641 7.1438-4.9027 16.904-17.973 13.758-36.436" fill="#10aa50"/>
  <path class="cls-2" d="m19.182 58.859c-0.37306 4.6858-0.64029 7.4083-1.5875 10.086 0 0 0.62177 4.4609 1.0583 9.1863h1.5452a85.918 85.918 0 0 1 1.6854-9.8928c-2.0002-0.98425-2.6247-5.2679-2.7014-9.3795z" fill="#b8c4c2"/>
  <path class="cls-3" d="m21.881 68.241c-2.0214-0.93398-2.6061-5.3075-2.6961-9.3821a192.04 192.04 0 0 0 0.43656-20.201c-0.10583-3.5348 0.050271-32.74-0.87048-37.015a35.531 35.531 0 0 0 2.1722 4.2042c2.1537 3.3655 10.599 8.1227 14.647 25.993 3.1538 18.431-6.5537 31.467-13.69 36.401z" fill="#12924f"/>
 </g>
</svg>
