<?xml version="1.0" encoding="UTF-8"?>
<svg width="1044" height="1044" version="1.1" viewBox="0 0 276.23 276.23" xmlns="http://www.w3.org/2000/svg">
 <g transform="matrix(1.3547 0 0 1.3547 2.6458 2.6458)">
  <circle cx="100" cy="100" r="99.976" fill="#48b9c7" stroke="#c87137" stroke-width=".047866"/>
  <g stroke-width=".3126">
   <path d="m52.804 169.41c-2.4243-0.74379-4.6135-2.8156-5.2619-4.9798-1.3812-4.6101 0.86922-9.2671 5.0862-10.525 2.3203-0.69223 92.439-0.69223 94.759 0 4.217 1.2581 6.4674 5.9151 5.0862 10.525-0.46976 1.5679-2.1748 3.5451-3.8127 4.421l-1.2949 0.69256-46.889 0.0533c-25.789 0.0293-47.242-0.0548-47.673-0.18706zm69.867-24.415c-4.5049-2.1969-5.2964-8.8963-1.4996-12.693 1.6324-1.6324 2.8093-2.1233 5.1188-2.1352 1.7612-9e-3 2.2149 0.11047 3.1621 0.83298 2.9525 2.252 3.6799 8.337 1.4021 11.73-0.54654 0.81402-1.5564 1.7973-2.2441 2.1851-1.6063 0.90571-4.1759 0.94059-5.9393 0.0806zm-31.955-1.1328c-3.9852-1.4111-9.29-9.1244-21.036-30.586-1.5996-2.9228-3.2194-5.8768-3.5996-6.5645-5.8586-10.598-25.158-48.602-26.068-51.334-2.108-6.3248 0.59197-11.176 10.293-18.495 8.9369-6.7421 15.19-9.9108 22.976-11.642 2.505-0.55703 11.315-0.56511 13.598-0.01248 10.964 2.6545 19.197 9.1343 24.182 19.032 4.2196 8.3792 5.4238 20.406 2.8714 28.678-1.42 4.6025-6.055 11.746-10.412 16.046-3.8159 3.7667-9.0043 7.2995-13.208 8.9933-1.1148 0.44919-2.1445 0.92904-2.2882 1.0663-0.22154 0.21155 1.3213 4.473 5.322 14.7 6.4812 16.568 7.0137 18.242 7.0602 22.194 0.0494 4.1946-1.0378 6.5354-3.6147 7.7829-1.6093 0.77903-4.1087 0.83669-6.0759 0.14012zm-3.8125-63.651c2.5375-1.71 3.266-3.9092 3.2334-9.7612-0.02929-5.2629-0.6186-7.8031-2.9007-12.504-1.8676-3.8469-4.4887-7.4017-7.6888-10.428-4.0619-3.8412-7.7833-5.0042-9.8074-3.065-0.50885 0.4875-1.1007 1.5131-1.3151 2.2792-0.5572 1.9901-0.19706 7.1071 0.75622 10.745 2.2242 8.4877 8.4241 19.602 12.496 22.401 1.8809 1.2928 3.6363 1.4048 5.2263 0.33329zm41.647 40.732c-0.37681-0.15828-0.91848-0.64395-1.2037-1.0792-0.72051-1.0996-1.389-5.9255-1.389-10.027 2e-5 -3.0908 0.62697-12.898 1.0945-17.121 1.9938-18.01 2.9856-23.759 4.6734-27.09 0.91757-1.8107 3.1134-3.8213 4.7538-4.3527 2.0616-0.66786 6.8605-0.78954 9.4799-0.24037 4.5446 0.95277 9.4248 4.101 10.93 7.0509 0.83621 1.6391 0.82745 4.1572-0.0243 7.0216-2.5326 8.5162-15.319 32.775-22.202 42.122-2.3796 3.2315-4.3755 4.4448-6.1121 3.7153z" fill="#fdfdfd"/>
   <path d="m92.277 199.81c0.30414-0.0793 0.72615-0.0741 0.93779 0.0118 0.21164 0.0857-0.03722 0.15048-0.553 0.1441-0.51578-6e-3 -0.68894-0.0764-0.38479-0.15568zm14.692 0c0.30415-0.0793 0.72615-0.0741 0.93779 0.0118 0.21164 0.0857-0.0372 0.15048-0.553 0.1441-0.51578-6e-3 -0.68894-0.0764-0.38479-0.15568zm-77.931-29.089-1.7086-1.7974 1.7974 1.7086c0.98858 0.93973 1.7974 1.7486 1.7974 1.7974 0 0.23203-0.29891-0.0387-1.8863-1.7086zm141.62 0.0782c0.93386-0.9456 1.7683-1.7193 1.8542-1.7193 0.086 0-0.60776 0.77368-1.5416 1.7193-0.93385 0.94559-1.7683 1.7193-1.8542 1.7193-0.086 0 0.60777-0.77368 1.5416-1.7193zm-83.649-29.306-0.59549-0.70333 0.70334 0.59549c0.38684 0.32751 0.70334 0.64401 0.70334 0.70334 0 0.25015-0.25157 0.0654-0.81119-0.5955zm13.34-3.8553c0.015-0.36417 0.0891-0.43823 0.18886-0.18886 0.0903 0.22565 0.0792 0.49527-0.0247 0.59913-0.10385 0.10385-0.17775-0.0807-0.16419-0.41027zm0.0247-2.9436c0-0.42983 0.071-0.60565 0.15767-0.39074 0.0867 0.2149 0.0867 0.56657 0 0.78148-0.0867 0.21492-0.15767 0.0391-0.15767-0.39074zm25.608-20.188c0.015-0.36415 0.0891-0.43823 0.18885-0.18886 0.0903 0.22565 0.0792 0.49527-0.0247 0.59915-0.10385 0.10385-0.17775-0.0807-0.16418-0.41029zm-125.94-7.1637c0.0063799-0.51578 0.076429-0.68893 0.15569-0.38479 0.079252 0.30415 0.074042 0.72615-0.011578 0.93779-0.085632 0.21163-0.15047-0.0372-0.1441-0.553zm199.75 0c6e-3 -0.51578 0.0764-0.68893 0.1557-0.38479 0.0793 0.30415 0.0741 0.72615-0.0118 0.93779-0.0856 0.21163-0.15047-0.0372-0.1441-0.553zm-73.809-3.152c0.015-0.36415 0.0891-0.43823 0.18886-0.18885 0.0903 0.22564 0.0792 0.49526-0.0247 0.59914-0.10385 0.10385-0.17775-0.0808-0.16418-0.41029zm0.33728-4.5066c0-0.42982 0.0709-0.60565 0.15766-0.39074 0.0867 0.21491 0.0867 0.56658 0 0.78149-0.0867 0.21491-0.15766 0.0391-0.15766-0.39074zm-126.28-7.0334c0.0063799-0.51578 0.076429-0.68895 0.15569-0.3848 0.079252 0.30416 0.074042 0.72615-0.011578 0.93779-0.085632 0.21164-0.15047-0.03722-0.1441-0.55298zm199.75 0c6e-3 -0.51578 0.0764-0.68895 0.1557-0.3848 0.0793 0.30416 0.0741 0.72615-0.0118 0.93779-0.0856 0.21164-0.15047-0.03722-0.1441-0.55298zm-72.871-0.02599c0.015-0.36416 0.0891-0.43823 0.18886-0.18887 0.0903 0.22566 0.0792 0.49528-0.0247 0.59914-0.10385 0.10385-0.17775-0.08081-0.16417-0.41028zm-25.345-1.8113c0-0.06486 0.24617-0.31108 0.54704-0.54704 0.49579-0.38882 0.50685-0.37777 0.11803 0.11803-0.40837 0.52071-0.66507 0.6863-0.66507 0.42901zm25.97-3.8155c0.015-0.36416 0.0891-0.43823 0.18886-0.18886 0.0903 0.22565 0.0792 0.49527-0.0247 0.59914-0.10385 0.10385-0.17775-0.08081-0.16419-0.41029zm-47.563-8.4922-0.75783-0.85963 0.85964 0.75783c0.80346 0.70831 1.003 0.96145 0.75783 0.96145-0.05599 0-0.44283-0.38685-0.85964-0.85964zm77.572-7.4502c0.015-0.36416 0.0891-0.43823 0.18886-0.18886 0.0903 0.22565 0.0792 0.49526-0.0247 0.59914-0.10385 0.10385-0.17775-0.08081-0.16419-0.41029zm-24.251-7.9451c0.31118-0.34385 0.63612-0.62518 0.72208-0.62518 0.086 0-0.0983 0.28133-0.40949 0.62518s-0.63612 0.6252-0.72209 0.6252c-0.086 0 0.0983-0.28134 0.4095-0.6252zm-65.151-10.498c0.01501-0.36415 0.08907-0.43823 0.18886-0.18886 0.0903 0.22566 0.07919 0.49527-0.02467 0.59914-0.10387 0.10385-0.17775-0.08069-0.16418-0.41029zm-29.047-1.3806c0-0.42983 0.07095-0.60565 0.15767-0.39074s0.08672 0.56657 0 0.78149c-0.08672 0.21491-0.15767 0.03911-0.15767-0.39074zm33.34-7.7159c0.22565-0.0903 0.49527-0.07919 0.59914 0.02467 0.10387 0.10387-0.08075 0.17775-0.41028 0.16418-0.36416-0.015-0.43823-0.08907-0.18886-0.18886zm-26.981-2.9124c0.31118-0.34386 0.63612-0.62519 0.72209-0.62519 0.08596 0-0.09831 0.28134-0.40949 0.62519-0.31119 0.34385-0.63613 0.62519-0.72209 0.62519-0.08596 0 0.09831-0.28134 0.40949-0.62519zm-16.411-11.41c0.93386-0.9456 1.7683-1.7193 1.8542-1.7193 0.08596 0-0.60776 0.77367-1.5416 1.7193-0.93386 0.9456-1.7683 1.7193-1.8542 1.7193-0.08596 0 0.60777-0.77367 1.5416-1.7193zm141.6-0.07815-1.7086-1.7974 1.7974 1.7086c0.98858 0.93973 1.7974 1.7486 1.7974 1.7974 0 0.23202-0.29891-0.03873-1.8862-1.7086zm-94.764-4.3554c0.22565-0.0903 0.49527-0.07919 0.59914 0.02468 0.10387 0.10388-0.08075 0.17775-0.41028 0.16418-0.36416-0.01499-0.43823-0.08907-0.18886-0.18886zm8.1275 0c0.22565-0.0903 0.49527-0.07919 0.59914 0.02468 0.10387 0.10388-0.08075 0.17775-0.41028 0.16418-0.36416-0.01499-0.43823-0.08907-0.18886-0.18886zm8.2702-24.698c0.30414-0.079253 0.72615-0.074042 0.93779 0.011578 0.21164 0.085632-0.03722 0.15047-0.553 0.1441-0.51578-0.00638-0.68894-0.076429-0.38479-0.15568zm14.692 0c0.30415-0.079253 0.72615-0.074042 0.93779 0.011578 0.21164 0.085632-0.0372 0.15047-0.553 0.1441-0.51578-0.00638-0.68894-0.076429-0.38479-0.15568z" fill="#cfecef"/>
   <path d="m93.697 199.81c0.22565-0.0903 0.49527-0.0792 0.59913 0.0247 0.10385 0.10385-0.08069 0.17775-0.41028 0.16418-0.36416-0.015-0.43823-0.0891-0.18886-0.18886zm12.191 0c0.22565-0.0903 0.49527-0.0792 0.59913 0.0247 0.10385 0.10385-0.0808 0.17775-0.41027 0.16418-0.36417-0.015-0.43823-0.0891-0.18886-0.18886zm-58.949-38.236c0-0.60174 0.06433-0.84791 0.14296-0.54704 0.07863 0.30087 0.07863 0.79321 0 1.0941s-0.14296 0.0547-0.14296-0.54704zm105.97 0c0-0.60174 0.0644-0.84791 0.14296-0.54704 0.0787 0.30087 0.0787 0.79321 0 1.0941s-0.14296 0.0547-0.14296-0.54704zm-59.544-17.087c0.21491-0.0867 0.56657-0.0867 0.78148 0 0.21492 0.0867 0.03911 0.15768-0.39073 0.15768-0.42983 0-0.60565-0.071-0.39074-0.15768zm25.165-6.2012c4e-3 -0.68771 0.0675-0.93223 0.14226-0.54339 0.0748 0.38884 0.072 0.95151-6e-3 1.2504-0.0782 0.29887-0.13941-0.0193-0.13594-0.70699zm-118.53-32.223c0.015005-0.36415 0.08907-0.43822 0.18886-0.18885 0.090299 0.22565 0.079194 0.49527-0.024681 0.59914-0.10387 0.10385-0.17775-0.0808-0.16418-0.41029zm199.75 0c0.015-0.36415 0.0891-0.43822 0.18885-0.18885 0.0903 0.22565 0.0792 0.49527-0.0247 0.59914-0.10385 0.10385-0.17776-0.0808-0.16419-0.41029zm-73.773-2.8134c0.015-0.36415 0.0891-0.43823 0.18886-0.18886 0.0903 0.22565 0.0792 0.49527-0.0247 0.59914-0.10385 0.10385-0.17775-0.0808-0.16418-0.41028zm-125.98-9.3779c0.015005-0.36415 0.08907-0.43823 0.18886-0.18886 0.090299 0.22565 0.079194 0.49527-0.024681 0.59914-0.10387 0.10385-0.17775-0.08081-0.16418-0.41029zm199.75 0c0.015-0.36415 0.0891-0.43823 0.18885-0.18886 0.0903 0.22565 0.0792 0.49527-0.0247 0.59914-0.10385 0.10385-0.17776-0.08081-0.16419-0.41029zm-58.396-33.482c0.30415-0.07928 0.72615-0.07408 0.93779 0.01182 0.21163 0.08566-0.0372 0.15047-0.55299 0.1441-0.51579-0.0059-0.68894-0.07644-0.3848-0.15568zm-47.657-60.328c0.22565-0.090299 0.49527-0.079193 0.59913 0.024681 0.10385 0.10387-0.08069 0.17775-0.41028 0.16418-0.36416-0.015005-0.43823-0.08907-0.18886-0.18886zm12.191 0c0.22565-0.090299 0.49527-0.079193 0.59913 0.024681 0.10385 0.10387-0.0808 0.17775-0.41027 0.16418-0.36417-0.015005-0.43823-0.08907-0.18886-0.18886z" fill="#a7dce3"/>
   <path d="m94.635 199.81c0.22565-0.0903 0.49527-0.0792 0.59913 0.0247 0.10385 0.10385-0.08069 0.17775-0.41028 0.16418-0.36416-0.015-0.43823-0.0891-0.18886-0.18886zm10.316 0c0.22565-0.0903 0.49527-0.0792 0.59913 0.0247 0.10385 0.10385-0.0808 0.17775-0.41027 0.16418-0.36416-0.015-0.43823-0.0891-0.18886-0.18886zm-56.209-43.668c0-0.0649 0.24617-0.31108 0.54704-0.54704 0.4958-0.38883 0.50685-0.37778 0.11803 0.11803-0.40837 0.5207-0.66507 0.6863-0.66507 0.42902zm101.87-0.42903c-0.38883-0.49579-0.37777-0.50684 0.11803-0.11802 0.52071 0.40836 0.68629 0.66506 0.42901 0.66506-0.0649 0-0.31107-0.24616-0.54704-0.54705zm-20.904-11.45c0-0.0649 0.24617-0.31108 0.54704-0.54704 0.49579-0.38883 0.50685-0.37778 0.11803 0.11803-0.40837 0.5207-0.66507 0.6863-0.66507 0.42901zm-129.7-39.139c0.015005-0.36415 0.08907-0.43823 0.18886-0.18886 0.090299 0.22565 0.079194 0.49527-0.024681 0.59915-0.10387 0.10385-0.17775-0.0807-0.16418-0.41029zm199.75 0c0.015-0.36415 0.0891-0.43823 0.18885-0.18886 0.0903 0.22565 0.0792 0.49527-0.0247 0.59915-0.10385 0.10385-0.17776-0.0807-0.16419-0.41029zm-73.773-2.8134c0.015-0.36415 0.0891-0.43823 0.18886-0.18886 0.0903 0.22565 0.0792 0.49527-0.0247 0.59915-0.10385 0.10385-0.17775-0.0807-0.16418-0.41029zm-125.98-7.5023c0.015005-0.36415 0.08907-0.43823 0.18886-0.18886 0.090299 0.22565 0.079194 0.49527-0.024681 0.59914-0.10387 0.10385-0.17775-0.08081-0.16418-0.41029zm199.75 0c0.015-0.36415 0.0891-0.43823 0.18885-0.18886 0.0903 0.22565 0.0792 0.49527-0.0247 0.59914-0.10385 0.10385-0.17776-0.08081-0.16419-0.41029zm-95.719-60.383c-0.38883-0.4958-0.37777-0.50685 0.11803-0.11803 0.52071 0.40836 0.6863 0.66506 0.42903 0.66506-0.0649 0-0.31108-0.24617-0.54704-0.54704zm-24.728-9.9952c0.56184-0.06958 1.4059-0.06813 1.8756 0.0032s0.01004 0.12825-1.0215 0.12649c-1.0316-0.0018-1.4159-0.06011-0.85404-0.12968zm15.331-24.369c0.22565-0.090299 0.49527-0.079193 0.59913 0.024681 0.10385 0.10387-0.08069 0.17775-0.41028 0.16418-0.36416-0.015005-0.43823-0.08907-0.18886-0.18886zm10.316 0c0.22565-0.090299 0.49527-0.079193 0.59913 0.024681 0.10385 0.10387-0.0808 0.17775-0.41027 0.16418-0.36416-0.015005-0.43823-0.08907-0.18886-0.18886z" fill="#8bd2da"/>
   <path d="m95.553 199.82c0.21491-0.0867 0.56658-0.0867 0.78149 0s0.03911 0.15768-0.39075 0.15768c-0.42982 0-0.60565-0.071-0.39074-0.15768zm8.1275 0c0.21491-0.0867 0.56657-0.0867 0.78148 0 0.21492 0.0867 0.0391 0.15768-0.39073 0.15768s-0.60566-0.071-0.39075-0.15768zm-12.816-0.31259c0.21491-0.0867 0.56658-0.0867 0.78149 0 0.21491 0.0867 0.03911 0.15766-0.39074 0.15766-0.42982 0-0.60565-0.0709-0.39074-0.15766zm17.505 0c0.21491-0.0867 0.56657-0.0867 0.78148 0 0.21492 0.0867 0.0391 0.15766-0.39073 0.15766s-0.60567-0.0709-0.39075-0.15766zm-31.26-29.724c12.594-0.0452 33.202-0.0452 45.795 0 12.594 0.0453 2.2898 0.0822-22.898 0.0822-25.187 0-35.491-0.037-22.898-0.0822zm21.022-26.767c0-0.0649 0.24617-0.31108 0.54704-0.54704 0.4958-0.38883 0.50686-0.37777 0.11803 0.11803-0.40836 0.5207-0.66507 0.6863-0.66507 0.42902zm2.5733-6.7591c0-0.60174 0.0644-0.84791 0.14296-0.54704 0.0787 0.30087 0.0787 0.79321 0 1.0941-0.0786 0.30087-0.14296 0.0547-0.14296-0.54704zm31.524-0.18235c0.015-0.36415 0.0891-0.43822 0.18886-0.18885 0.0903 0.22565 0.0792 0.49527-0.0247 0.59914-0.10385 0.10385-0.17775-0.0808-0.16419-0.41029zm0.28793-16.191c0-0.0649 0.24617-0.31108 0.54704-0.54705 0.49579-0.38883 0.50685-0.37777 0.11803 0.11803-0.40838 0.52071-0.66507 0.6863-0.66507 0.42902zm-6.5398-3.8155c0.015-0.36416 0.0891-0.43823 0.18886-0.18885 0.0903 0.22564 0.0792 0.49526-0.0247 0.59914-0.10385 0.10385-0.17775-0.0808-0.16418-0.41029zm-0.24041-6.2259c2e-3 -1.0316 0.0601-1.4159 0.12969-0.85403 0.0696 0.56183 0.0682 1.4058-4e-3 1.8756-0.0714 0.46972-0.12824 9e-3 -0.1265-1.0215zm-125.4-1.0941c0-0.42982 0.070947-0.60565 0.15767-0.39075 0.086719 0.21491 0.086719 0.56659 0 0.78149-0.086719 0.21491-0.15767 0.0391-0.15767-0.39074zm199.12 0c0-0.42982 0.0709-0.60565 0.15767-0.39075 0.0867 0.21491 0.0867 0.56659 0 0.78149-0.0867 0.21491-0.15767 0.0391-0.15767-0.39074zm-199.44-4.6889c0-0.42982 0.070947-0.60566 0.15767-0.39075 0.086719 0.21491 0.086719 0.56658 0 0.78149-0.086719 0.21491-0.15767 0.0391-0.15767-0.39074zm199.75 0c0-0.42982 0.0709-0.60566 0.15766-0.39075 0.0867 0.21491 0.0867 0.56658 0 0.78149s-0.15766 0.0391-0.15766-0.39074zm-73.761-2.9697c6e-3 -0.51578 0.0764-0.68894 0.15568-0.3848 0.0793 0.30416 0.0741 0.72615-0.0118 0.93779-0.0857 0.21163-0.15048-0.0372-0.1441-0.55299zm-125.99-5.1578c0-0.42982 0.070947-0.60565 0.15767-0.39074 0.086719 0.21491 0.086719 0.56658 0 0.78149-0.086719 0.21491-0.15767 0.03911-0.15767-0.39074zm199.75 0c0-0.42982 0.0709-0.60565 0.15766-0.39074 0.0867 0.21491 0.0867 0.56658 0 0.78149s-0.15766 0.03911-0.15766-0.39074zm-73.172-2.0579c0.015-0.36415 0.0891-0.43823 0.18885-0.18886 0.0903 0.22565 0.0792 0.49527-0.0247 0.59914-0.10385 0.10385-0.17775-0.08081-0.16419-0.41029zm-126.26-2.631c0-0.42982 0.070947-0.60565 0.15767-0.39075 0.086719 0.21491 0.086719 0.56658 0 0.78149s-0.15767 0.03911-0.15767-0.39074zm199.12 0c0-0.42982 0.0709-0.60565 0.15767-0.39075 0.0867 0.21491 0.0867 0.56658 0 0.78149s-0.15767 0.03911-0.15767-0.39074zm-96.172-1.8756c0.31118-0.34385 0.63612-0.62518 0.72208-0.62518 0.086 0-0.0983 0.28133-0.40949 0.62518s-0.63612 0.6252-0.72209 0.6252c-0.086 0 0.0983-0.28134 0.4095-0.6252zm23.938-1.4327c0.015-0.36416 0.0891-0.43823 0.18886-0.18886 0.0903 0.22565 0.0792 0.49527-0.0247 0.59914-0.10385 0.10385-0.17777-0.08081-0.16419-0.41029zm-37.127-17.167c0.0019-1.0316 0.06011-1.4159 0.12968-0.85403 0.06958 0.56184 0.06813 1.4058-0.0032 1.8756-0.07132 0.46973-0.12825 0.0095-0.12649-1.0215zm25.317-7.6586c0-0.9456 0.0586-1.3324 0.13022-0.85963 0.0716 0.4728 0.0716 1.2465 0 1.7193s-0.13022 0.08601-0.13022-0.85964zm24.06-2.7174c0.30414-0.07928 0.72615-0.07408 0.93779 0.01182 0.21163 0.08566-0.0372 0.15047-0.55299 0.1441-0.51579-0.0059-0.68894-0.07644-0.3848-0.15568zm3.4386 0c0.30415-0.07928 0.72615-0.07408 0.93779 0.01182 0.21163 0.08566-0.0372 0.15047-0.553 0.1441-0.51578-0.0059-0.68893-0.07644-0.38479-0.15568zm-74.77-9.6562c0.01501-0.36415 0.08907-0.43823 0.18886-0.18886 0.0903 0.22566 0.07919 0.49527-0.02467 0.59914-0.10387 0.10385-0.17775-0.08081-0.16418-0.41029zm0-1.8756c0.01501-0.36415 0.08907-0.43823 0.18886-0.18886 0.0903 0.22566 0.07919 0.49527-0.02467 0.59914-0.10387 0.10385-0.17775-0.08069-0.16418-0.41029zm12.293-0.2084-0.59549-0.70334 0.70334 0.59549c0.66096 0.55961 0.84564 0.81119 0.59549 0.81119-0.05932 0-0.37582-0.3165-0.70334-0.70335zm24.529-13.285c-0.38883-0.4958-0.37777-0.50685 0.11803-0.11803 0.5207 0.40837 0.6863 0.66507 0.42902 0.66507-0.0649 0-0.31108-0.24617-0.54704-0.54704zm-27.697-10.923c0.30415-0.07925 0.72615-0.07404 0.93779 0.01158 0.21164 0.08563-0.0372 0.15047-0.55299 0.1441-0.51578-0.0064-0.68894-0.07643-0.3848-0.15569zm5.0015 0c0.30415-0.07925 0.72615-0.07404 0.93779 0.01158 0.21164 0.08563-0.0372 0.15047-0.55299 0.1441-0.51578-0.0064-0.68894-0.07643-0.3848-0.15569zm8.5904-24.06c0.21491-0.086719 0.56658-0.086719 0.78149 0 0.21491 0.086719 0.03911 0.15767-0.39074 0.15767-0.42982 0-0.60565-0.070947-0.39074-0.15767zm17.505 0c0.21491-0.086719 0.56657-0.086719 0.78148 0 0.21492 0.086719 0.0391 0.15767-0.39073 0.15767s-0.60567-0.070947-0.39075-0.15767zm-12.816-0.3126c0.21491-0.086719 0.56658-0.086719 0.78149 0 0.21491 0.086719 0.03911 0.15767-0.39075 0.15767-0.42982 0-0.60565-0.070947-0.39074-0.15767zm8.1275 0c0.21491-0.086719 0.56657-0.086719 0.78148 0 0.21492 0.086719 0.0391 0.15767-0.39073 0.15767s-0.60566-0.070947-0.39075-0.15767z" fill="#70c7d2"/>
   <path d="m76.797 153.21c12.766-0.0453 33.655-0.0453 46.42 0 12.766 0.0452 2.321 0.0822-23.21 0.0822-25.531 0-35.976-0.037-23.21-0.0822zm49.493-56.84c0.015-0.36416 0.0891-0.43823 0.18885-0.18886 0.0903 0.22565 0.0792 0.49527-0.0247 0.59914-0.10385 0.10385-0.17776-0.08081-0.16419-0.41029zm0.62519-6.5645c0.015-0.36416 0.0891-0.43823 0.18886-0.18886 0.0903 0.22565 0.0792 0.49527-0.0247 0.59914-0.10385 0.10385-0.17775-0.08081-0.16417-0.41029z" fill="#30afbe"/>
  </g>
 </g>
</svg>
