<?xml version="1.0" encoding="UTF-8"?>
<svg width="2500" height="2500" version="1.1" viewBox=".8 0 34.866 34" xmlns="http://www.w3.org/2000/svg">
 <g transform="matrix(1.0048 0 0 1.0048 1.4531 -.15188)">
  <g fill="#231f20">
   <path d="m11.1 27.3c0 1.1-0.9 2.1-2.1 2.1s-2.1-0.9-2.1-2.1v-9c0-1.1 0.9-2.1 2.1-2.1s2.1 0.9 2.1 2.1zm6 2.4c0 1.1-0.9 2.1-2.1 2.1s-2-0.9-2-2.1v-13.7c0-1.1 0.9-2.1 2.1-2.1s2.1 0.9 2.1 2.1v13.7zm-12.1-4.4c0 1.1-0.9 2.1-2.1 2.1s-2.1-0.9-2.1-2.1v-4.9c0-1.1 0.9-2.1 2.1-2.1s2.1 1 2.1 2.1zm18.1 6.6c0 1.1-0.9 2.1-2.1 2.1-1.1 0-2-1-2-2.1v-18.2c0-1.1 0.9-2.1 2.1-2.1 1.1 0 2.1 0.9 2.1 2.1v18.2z"/>
   <path d="m29.7 31c-0.4 0-0.7-0.1-1.1-0.2l-2.5-0.8c-0.4-0.1-0.7-0.6-0.5-1 0.1-0.4 0.6-0.7 1-0.5l2.6 0.8c0.5 0.2 1.1 0.1 1.6-0.3 0.5-0.3 0.7-0.9 0.7-1.4v-16.7c0-0.8-0.5-1.5-1.2-1.7l-24.5-7.4c-0.5-0.2-1.1-0.1-1.6 0.2-0.4 0.4-0.7 0.9-0.7 1.5v11.5c0 0.5-0.4 0.8-0.8 0.8-0.5 0-0.8-0.4-0.8-0.8v-11.5c0-1.1 0.5-2.1 1.4-2.7 0.9-0.7 2-0.8 3-0.5l24.4 7.4c1.4 0.4 2.4 1.8 2.4 3.3v16.7c0 1.1-0.5 2.1-1.4 2.8-0.6 0.2-1.3 0.5-2 0.5"/>
  </g>
 </g>
</svg>
