<!-- Created with Inkscape (http://www.inkscape.org/) -->
<svg version="1.1" viewBox="0 0 1080 1080" xmlns="http://www.w3.org/2000/svg">
 <circle transform="scale(-1,1)" cx="-540" cy="540" r="520" fill-rule="evenodd" stroke-width="4.3857"/>
 <g transform="matrix(2.6716 0 0 2.6716 -629.29 -537.68)">
  <path d="m434.65 461.3c-7.0701-0.89634-14.445-4.956-19.777-10.887-11.704-13.017-10.483-33.24 2.7055-44.82 7.6746-6.7384 15.667-9.4396 33.082-11.18 12.43-1.2423 16.601-2.3983 20.505-5.6834 4.2285-3.558 5.7344-6.8726 7.3486-16.174 2.3015-13.263-1.223-28.213-8.068-34.223-4.884-4.2882-7.0084-4.9206-21.808-6.4915-17.462-1.8536-24.013-4.2195-31.957-11.542-5.8907-5.4298-9.6603-14.113-9.7079-22.36-0.0517-8.9699 2.4212-15.553 8.2296-21.909 13.16-14.399 35.287-14.62 48.51-0.48379 6.1015 6.523 9.0008 13.464 11.467 27.452 2.2815 12.941 3.5061 15.97 7.9755 19.731 3.9055 3.2863 8.0786 4.4423 20.505 5.6802 24.733 2.4639 35.799 8.6342 42.107 23.477 2.2812 5.3676 2.2812 17.632 0 23-6.2088 14.609-16.453 20.446-40.307 22.965-7.4947 0.7914-14.732 2.1207-16.744 3.0756-7.6092 3.6108-10.749 9.6196-13.975 26.745-4.3788 23.244-19.822 36.197-40.091 33.627z" fill="#ca4245"/>
  <g fill="#fff" stroke-width=".90965">
   <circle cx="367.23" cy="359.07" r="32.5"/>
   <circle cx="289.16" cy="424.77" r="32.5"/>
   <circle cx="587.19" cy="424.9" r="32.5"/>
  </g>
 </g>
</svg>
