<?xml version="1.0" encoding="UTF-8"?>
<svg width="4096" height="4096" version="1.1" viewBox="0 0 1083.7 1083.7" xmlns="http://www.w3.org/2000/svg">
 <g transform="matrix(42.149 0 0 42.149 -1.6486e-6 1.0227)" stroke-width=".26458">
  <path class="st0" d="m23.411 1.5133c-0.34396 0.84667-0.82021 1.6669-1.3758 2.4077-4.9212-5.1065-13.044-5.2387-18.124-0.3175-5.08 4.9212-5.2387 13.044-0.3175 18.124 0.15875 0.18521 0.34396 0.34396 0.52917 0.50271l0.47625 0.42333c5.3975 4.5508 13.494 3.8629 18.045-1.5346 1.7462-2.0638 2.8046-4.6567 2.9898-7.3554 0.37042-3.2015-0.60854-7.329-2.2225-12.25zm-17.436 20.849c-0.37042 0.47625-1.0583 0.52917-1.5346 0.15875-0.47625-0.37042-0.52917-1.0583-0.15875-1.5346 0.37042-0.47625 1.0583-0.52917 1.5346-0.15875 0.44979 0.37042 0.52917 1.0583 0.15875 1.5346zm17.357-3.8365c-3.1485 4.2069-9.9219 2.7781-14.235 2.9898 0 0-0.76729 0.05292-1.5346 0.15875 0 0 0.29104-0.13229 0.66146-0.26458 3.0427-1.0583 4.4715-1.27 6.3235-2.2225 3.466-1.7727 6.9321-5.6621 7.62-9.6837-1.3229 3.8629-5.3446 7.1967-8.9958 8.546-2.5135 0.92604-7.0379 1.8256-7.0379 1.8256l-0.18521-0.10583c-3.0692-1.5081-3.175-8.1756 2.4342-10.319 2.4606-0.9525 4.789-0.42333 7.4612-1.0583 2.831-0.66146 6.1119-2.7781 7.4348-5.5562 1.4817 4.4715 3.2808 11.404 0.05292 15.69z" fill="#6db33f"/>
  <path class="st0" d="m22.644 21.119c1.7462-2.0638 2.8046-4.6567 2.9898-7.3554" fill="#6db33f"/>
  <path class="st1" d="m23.332 18.526c-3.1485 4.2069-9.9219 2.7781-14.235 2.9898 0 0-0.76729 0.05292-1.5346 0.15875 0 0 0.29104-0.13229 0.66146-0.26458 3.0427-1.0583 4.4715-1.27 6.3235-2.2225 3.466-1.7727 6.9321-5.6621 7.62-9.6837-1.3229 3.8629-5.3446 7.1967-8.9958 8.546-2.5135 0.92604-7.0379 1.8256-7.0379 1.8256l-0.18521-0.10583c-3.0692-1.5081-3.175-8.1756 2.4342-10.319 2.4606-0.9525 4.789-0.42333 7.4612-1.0583 2.831-0.66146 6.1119-2.7781 7.4348-5.5562 1.4817 4.4715 3.2808 11.404 0.05292 15.69z" fill="#fff"/>
  <path class="st1" d="m5.9751 22.362c-0.37042 0.47625-1.0583 0.52917-1.5346 0.15875-0.47625-0.37042-0.52917-1.0583-0.15875-1.5346 0.37042-0.47625 1.0583-0.52917 1.5346-0.15875 0.44979 0.37042 0.52917 1.0583 0.15875 1.5346z" fill="#fff"/>
 </g>
</svg>
