<svg enable-background="new 0 0 934 345" inkscape:version="1.1.2 (0a00cf5339, 2022-02-04)" sodipodi:docname="Laravel9-logo-2.svg" version="1.1" viewBox="0 0 934 345" xml:space="preserve" xmlns="http://www.w3.org/2000/svg" xmlns:inkscape="http://www.inkscape.org/namespaces/inkscape" xmlns:sodipodi="http://sodipodi.sourceforge.net/DTD/sodipodi-0.dtd"><sodipodi:namedview bordercolor="#666666" borderopacity="1.0" inkscape:current-layer="Layer_1" inkscape:cx="451.09401" inkscape:cy="175.60218" inkscape:pagecheckerboard="0" inkscape:pageopacity="0.0" inkscape:pageshadow="2" inkscape:window-height="1011" inkscape:window-maximized="1" inkscape:window-width="1920" inkscape:window-x="0" inkscape:window-y="0" inkscape:zoom="0.78586724" pagecolor="#ffffff" showgrid="false"/>
<g transform="matrix(1.3714 0 0 1.3714 -173.45 -64.068)" fill="#ef3b2d">
	
		<polygon points="373.18 121.38 373.18 221.61 420.58 221.61 420.58 206.86 389.65 206.86 389.65 121.38"/>
		<path d="m478.71 163.9c-2.101-3.341-5.083-5.965-8.949-7.875-3.865-1.909-7.756-2.864-11.669-2.864-5.062 0-9.69 0.931-13.89 2.792-4.201 1.861-7.804 4.417-10.811 7.661-3.007 3.246-5.347 6.993-7.016 11.239-1.672 4.249-2.506 8.713-2.506 13.389 0 4.774 0.834 9.26 2.506 13.459 1.669 4.202 4.009 7.925 7.016 11.169 3.007 3.246 6.609 5.799 10.811 7.66 4.199 1.861 8.828 2.792 13.89 2.792 3.913 0 7.804-0.955 11.669-2.863 3.866-1.908 6.849-4.533 8.949-7.875v9.021h15.607v-66.725h-15.607zm-1.431 32.503c-0.955 2.578-2.291 4.821-4.009 6.73-1.719 1.91-3.795 3.437-6.229 4.582-2.435 1.146-5.133 1.718-8.091 1.718-2.96 0-5.633-0.572-8.019-1.718-2.387-1.146-4.438-2.672-6.156-4.582-1.719-1.909-3.032-4.152-3.938-6.73-0.909-2.577-1.36-5.298-1.36-8.161 0-2.864 0.451-5.585 1.36-8.162 0.905-2.577 2.219-4.819 3.938-6.729 1.718-1.908 3.77-3.437 6.156-4.582 2.386-1.146 5.059-1.718 8.019-1.718 2.958 0 5.656 0.572 8.091 1.718 2.434 1.146 4.51 2.674 6.229 4.582 1.718 1.91 3.054 4.152 4.009 6.729 0.953 2.577 1.432 5.298 1.432 8.162-1e-3 2.863-0.479 5.584-1.432 8.161z"/>
		<path d="m605.57 163.9c-2.101-3.341-5.083-5.965-8.949-7.875-3.865-1.909-7.756-2.864-11.669-2.864-5.062 0-9.69 0.931-13.89 2.792-4.201 1.861-7.804 4.417-10.811 7.661-3.007 3.246-5.347 6.993-7.016 11.239-1.672 4.249-2.506 8.713-2.506 13.389 0 4.774 0.834 9.26 2.506 13.459 1.669 4.202 4.009 7.925 7.016 11.169 3.007 3.246 6.609 5.799 10.811 7.66 4.199 1.861 8.828 2.792 13.89 2.792 3.913 0 7.804-0.955 11.669-2.863 3.866-1.908 6.849-4.533 8.949-7.875v9.021h15.607v-66.725h-15.607zm-1.432 32.503c-0.955 2.578-2.291 4.821-4.009 6.73-1.719 1.91-3.795 3.437-6.229 4.582-2.435 1.146-5.133 1.718-8.091 1.718-2.96 0-5.633-0.572-8.019-1.718-2.387-1.146-4.438-2.672-6.156-4.582-1.719-1.909-3.032-4.152-3.938-6.73-0.909-2.577-1.36-5.298-1.36-8.161 0-2.864 0.451-5.585 1.36-8.162 0.905-2.577 2.219-4.819 3.938-6.729 1.718-1.908 3.77-3.437 6.156-4.582 2.386-1.146 5.059-1.718 8.019-1.718 2.958 0 5.656 0.572 8.091 1.718 2.434 1.146 4.51 2.674 6.229 4.582 1.718 1.91 3.054 4.152 4.009 6.729 0.953 2.577 1.432 5.298 1.432 8.162 0 2.863-0.479 5.584-1.432 8.161z"/>
		<rect x="776.78" y="121.38" width="15.606" height="100.23"/>
		<polygon points="522.24 221.61 522.24 170.24 549.01 170.24 549.01 154.88 506.63 154.88 506.63 221.61"/>
		<polygon points="664.13 205.98 644.52 154.88 628.71 154.88 654.32 221.61 673.94 221.61 699.56 154.88 683.75 154.88"/>
		<path d="m733.6 153.17c-19.112 0-34.239 15.706-34.239 35.079 0 21.416 14.641 35.079 36.239 35.079 12.088 0 19.806-4.622 29.234-14.688l-10.544-8.158c-6e-3 8e-3 -7.958 10.449-19.832 10.449-13.802 0-19.612-11.127-19.612-16.884h51.777c2.72-22.043-11.772-40.877-33.023-40.877zm-18.713 29.28c0.12-1.284 1.917-16.884 18.589-16.884 16.671 0 18.697 15.598 18.813 16.884h-37.402z"/>
	
	<path d="m325.68 120.59c-0.024-0.088-0.073-0.165-0.104-0.25-0.058-0.157-0.108-0.316-0.191-0.46-0.056-0.097-0.137-0.176-0.203-0.265-0.087-0.117-0.161-0.242-0.265-0.345-0.085-0.086-0.194-0.148-0.29-0.223-0.109-0.085-0.206-0.182-0.327-0.252 0 0-1e-3 0-2e-3 -1e-3 -1e-3 0-1e-3 -1e-3 -2e-3 -2e-3l-35.648-20.524c-0.917-0.528-2.047-0.528-2.964 0l-35.647 20.522c-1e-3 0-1e-3 1e-3 -2e-3 2e-3 -1e-3 0-2e-3 0-2e-3 1e-3 -0.121 0.07-0.219 0.167-0.327 0.252-0.096 0.075-0.205 0.138-0.29 0.223-0.103 0.103-0.178 0.228-0.265 0.345-0.066 0.089-0.147 0.169-0.203 0.265-0.083 0.144-0.133 0.304-0.191 0.46-0.031 0.085-0.08 0.162-0.104 0.25-0.067 0.249-0.103 0.51-0.103 0.776v38.979l-29.706 17.103v-76.255c0-0.265-0.036-0.526-0.103-0.776-0.024-0.088-0.073-0.165-0.104-0.25-0.058-0.157-0.108-0.316-0.191-0.46-0.056-0.097-0.137-0.176-0.203-0.265-0.087-0.117-0.161-0.242-0.265-0.345-0.085-0.086-0.194-0.148-0.29-0.223-0.109-0.085-0.206-0.182-0.327-0.252 0 0-1e-3 0-2e-3 -1e-3 -1e-3 0-1e-3 -1e-3 -2e-3 -2e-3l-35.647-20.523c-0.917-0.528-2.047-0.528-2.964 0l-35.647 20.523c-1e-3 0-1e-3 1e-3 -2e-3 2e-3 -1e-3 0-2e-3 0-2e-3 1e-3 -0.121 0.07-0.219 0.167-0.327 0.252-0.096 0.075-0.205 0.138-0.29 0.223-0.103 0.103-0.178 0.228-0.265 0.345-0.066 0.089-0.147 0.169-0.203 0.265-0.083 0.144-0.133 0.304-0.191 0.46-0.031 0.085-0.08 0.162-0.104 0.25-0.067 0.249-0.103 0.51-0.103 0.776v122.09c0 1.063 0.568 2.044 1.489 2.575l71.293 41.045c0.156 0.089 0.324 0.143 0.49 0.202 0.078 0.028 0.15 0.074 0.23 0.095 0.249 0.066 0.506 0.1 0.762 0.1s0.512-0.033 0.762-0.1c0.069-0.018 0.132-0.059 0.2-0.083 0.176-0.061 0.354-0.119 0.519-0.214l71.293-41.045c0.921-0.53 1.489-1.512 1.489-2.575v-38.979l34.158-19.666c0.921-0.53 1.489-1.512 1.489-2.575v-40.697c-3e-3 -0.264-0.038-0.525-0.106-0.774zm-109.81 99.275-29.648-16.779 31.136-17.926 1e-3 -1e-3 34.164-19.669 29.674 17.084-21.772 12.428zm68.329-76.259v33.841l-29.706-17.102v-33.841l12.475 7.182zm2.97-39.335 29.693 17.095-29.693 17.095-29.693-17.095zm-91.494 86.516-12.475 7.182v-74.538l29.706-17.102v74.537zm-15.446-106.69 29.693 17.095-29.693 17.095-29.693-17.095zm-32.676 22.234 29.706 17.102v79.676c0 2e-3 1e-3 3e-3 1e-3 5e-3s-1e-3 4e-3 -1e-3 6e-3c0 0.114 0.032 0.221 0.045 0.333 0.017 0.146 0.021 0.294 0.059 0.434 1e-3 2e-3 1e-3 5e-3 2e-3 7e-3 0.032 0.117 0.094 0.222 0.14 0.334 0.051 0.124 0.088 0.255 0.156 0.371 1e-3 3e-3 2e-3 6e-3 4e-3 9e-3 0.061 0.105 0.149 0.191 0.222 0.288 0.081 0.105 0.149 0.22 0.244 0.314 3e-3 3e-3 5e-3 7e-3 8e-3 0.01 0.084 0.083 0.19 0.142 0.284 0.215 0.106 0.083 0.202 0.178 0.32 0.247 4e-3 2e-3 9e-3 3e-3 0.013 5e-3s7e-3 6e-3 0.011 8e-3l34.139 19.321v34.175l-65.352-37.625v-115.24zm136.65 115.24-65.352 37.625v-34.182l48.399-27.628 16.953-9.677v33.862zm35.646-61.22-29.706 17.102v-33.841l29.706-17.102z"/>
</g>
</svg>
