<svg inkscape:version="1.1.2 (0a00cf5339, 2022-02-04)" sodipodi:docname="ZendFramework.svg" version="1.1" viewBox="0 0 908.44 176.64" xml:space="preserve" xmlns="http://www.w3.org/2000/svg" xmlns:inkscape="http://www.inkscape.org/namespaces/inkscape" xmlns:sodipodi="http://sodipodi.sourceforge.net/DTD/sodipodi-0.dtd"><sodipodi:namedview height="160.637px" bordercolor="#666666" borderopacity="1" gridtolerance="10" guidetolerance="10" inkscape:current-layer="g10" inkscape:cx="402.3684" inkscape:cy="333.03541" inkscape:pagecheckerboard="0" inkscape:pageopacity="0" inkscape:pageshadow="2" inkscape:window-height="1011" inkscape:window-maximized="1" inkscape:window-width="1920" inkscape:window-x="0" inkscape:window-y="0" inkscape:zoom="0.84375413" objecttolerance="10" pagecolor="#ffffff" showgrid="false"/><g transform="matrix(1.3333 0 0 -1.3333 0 311.11)" inkscape:groupmode="layer" inkscape:label="ink_ext_XXXXXX"><g transform="matrix(1.2257 0 0 1.2257 -78.128 24.33)" fill="#5cbc33"><path d="m159.97 135.14s0 24.339 24.339 24.339h73.012s0-24.339-24.337-24.339h-73.014"/><path d="m159.97 104.04s0 24.338 24.339 24.338h36.506s0-24.338-24.338-24.338h-36.507"/><path d="m159.97 72.946s0 24.338 24.339 24.338h12.168s0-24.338-24.337-24.338h-12.17"/><path d="m151.8 91.939v-19.416h-78.266l50.418 68.778h-43.282v19.419h81.648l-50.186-68.781h39.668"/><path d="m609.8 73.021h-11.022l-9.923 15.075-1.782-2.5461v-12.529h-9.116v37.08h9.116v-16.464l11.61 16.464h10.564l-12.955-17.21zm-49.764 28.162c-0.347 0.674-0.929 1.198-1.738 1.566-0.567 0.252-1.198 0.407-1.895 0.475-0.698 0.066-1.564 0.1-2.601 0.1h-3.035v-10.04h2.599c1.262 0 2.336 0.082 3.218 0.2371 0.883 0.1609 1.632 0.4988 2.248 1.0141 0.584 0.4679 1.017 1.0277 1.301 1.6777 0.282 0.6492 0.425 1.5031 0.425 2.557 0 0.9313-0.174 1.7371-0.522 2.4131zm3.007-12.385 12.237-15.777h-11.146l-10.137 13.613h-3.23v-13.613h-9.118v37.08h14.643c2.022 0 3.781-0.13 5.282-0.386 1.499-0.261 2.883-0.794 4.154-1.608 1.304-0.842 2.341-1.918 3.105-3.221 0.766-1.303 1.151-2.957 1.151-4.961 0-2.8398-0.631-5.141-1.89-6.907-1.258-1.768-2.942-3.1739-5.051-4.22zm-36.917 8.4168c-0.447 1.5551-1.042 2.8282-1.788 3.8222-0.777 1.013-1.657 1.741-2.639 2.183-0.982 0.437-1.998 0.661-3.052 0.661-1.119 0-2.132-0.204-3.042-0.613-0.907-0.404-1.783-1.132-2.625-2.178-0.746-0.965-1.352-2.242-1.814-3.838-0.461-1.5918-0.692-3.4961-0.692-5.704 0-2.2761 0.219-4.164 0.655-5.6671 0.438-1.5039 1.039-2.7618 1.802-3.775 0.777-1.0278 1.661-1.7629 2.651-2.2047 0.99-0.441 2.01-0.6614 3.065-0.6614 1.07 0 2.107 0.2391 3.113 0.7133 1.004 0.4719 1.873 1.2059 2.604 2.2051 0.777 1.0758 1.379 2.334 1.8 3.7707 0.42 1.4359 0.631 3.318 0.631 5.6441 0 2.209-0.222 4.0911-0.669 5.6418zm5.389-19.833c-3.136-3.441-7.434-5.1621-12.893-5.1621-5.475 0-9.774 1.7403-12.893 5.2242-3.119 3.486-4.68 8.184-4.68 14.104 0 5.968 1.561 10.688 4.68 14.15 3.119 3.471 7.418 5.204 12.893 5.204 5.459 0 9.757-1.726 12.893-5.176 3.135-3.449 4.704-8.1772 4.704-14.178 0-6.0019-1.569-10.722-4.704-14.166zm-42.044-4.3609h-9.983l-5.869 22.936-5.689-22.936h-9.993l-9.208 37.08h9.455l5.019-24.922 6.116 24.922h9.063l5.804-24.941 5.293 24.941h9.202zm-43.852 7.0219v-7.0219h-24.645v37.08h24.645v-7.023h-15.521v-6.5268h14.288v-7.0231h-14.288v-9.4851zm-41.278-7.0219v24.591l-6.596-15.843h-6.206l-6.597 15.843v-24.591h-8.622v37.08h10.545l8.032-18.283 8.009 18.283h10.549v-37.08zm-48.981 26.599-3.734-12.31h7.467zm7.999-26.599-2.249 7.5148h-11.5l-2.249-7.5148h-9.146l12.266 37.08h9.954l12.267-37.08zm-39.183 28.162c-0.349 0.674-0.928 1.198-1.737 1.566-0.567 0.252-1.198 0.407-1.896 0.474-0.696 0.067-1.565 0.101-2.6 0.101h-3.038v-10.04h2.602c1.261 0 2.335 0.082 3.218 0.2371 0.885 0.1609 1.631 0.4988 2.249 1.0141 0.582 0.4668 1.015 1.0277 1.299 1.6777 0.281 0.6492 0.425 1.5031 0.425 2.557 0 0.9313-0.173 1.7371-0.522 2.4131zm3.008-12.385 12.233-15.777h-11.144l-10.137 13.613h-3.231v-13.613h-9.115v37.08h14.644c2.019 0 3.779-0.13 5.278-0.386 1.499-0.261 2.886-0.794 4.155-1.608 1.302-0.842 2.339-1.918 3.104-3.221 0.767-1.303 1.149-2.957 1.149-4.961 0-2.8398-0.629-5.141-1.887-6.907-1.258-1.768-2.942-3.1739-5.049-4.22zm-41.333 14.28v-7.0198h14.044v-7.023h-14.044v-16.014h-9.115v37.08h24.389v-7.023zm102.71 45.098c-0.925 2.014-2.296 3.588-4.11 4.716-1.283 0.794-2.652 1.366-4.111 1.715-1.46 0.348-3.274 0.524-5.445 0.524h-3.672v-28.584h3.672c2.14 0 4.009 0.174 5.614 0.523 1.608 0.348 3.074 0.995 4.404 1.939 1.668 1.162 2.924 2.708 3.768 4.641 0.843 1.931 1.264 4.339 1.264 7.225 0 2.854-0.462 5.286-1.384 7.301zm4.421-16.541c-1.341-2.722-3.143-4.846-5.402-6.374-1.838-1.18-3.704-1.969-5.599-2.366-1.895-0.398-4.313-0.598-7.255-0.598h-8.366v37.083h8.267c3.415 0 6.094-0.264 8.037-0.785 1.942-0.524 3.599-1.241 4.965-2.155 2.341-1.577 4.155-3.672 5.439-6.287 1.286-2.617 1.928-5.735 1.928-9.353 0-3.386-0.672-6.443-2.014-9.165zm-39.507-9.338-16.093 31.975v-31.975h-4.496v37.083h6.843l14.649-29.363v29.363h4.497v-37.083zm-25.953 4.372v-4.372h-22.787v37.083h22.787v-4.375h-17.921v-10.164h16.69v-4.372h-16.69v-13.8zm-27.687-4.372h-25.374v4.573l19.498 28.135h-18.636v4.375h24.023v-4.446l-19.663-28.265h20.152v-4.372"/></g></g></svg>
