<?xml version="1.0" encoding="UTF-8"?>
<svg width="1024" height="1024" version="1.1" viewBox="0 0 270.93 270.93" xmlns="http://www.w3.org/2000/svg">
 <g transform="matrix(27.47 0 0 27.47 -604.76 0)" stroke-width=".26458">
  <path d="m25.929 1.2462h-2.2357a0.82021 0.82021 0 0 0-0.81756 0.82021 0.79375 0.79375 0 0 0 0.76994 0.81756h2.2992z" fill="#073042"/>
  <path d="m30.996 8.5355h-7.3051a0.82021 0.82021 0 0 1-0.81492-0.81756v-5.6568a0.82021 0.82021 0 0 0 0.81492 0.8255h6.1145s1.1906-0.10319 1.1906 0.79375z" fill="#4285f4"/>
  <path d="m27.588 5.6383a0.73554 0.73554 0 0 0-0.42069-1.3229h0.02381a0.52917 0.52917 0 0 1 0.12965 0v-0.45508a0.14817 0.14817 0 0 0-0.068789-0.12965 0.14288 0.14288 0 0 0-0.21431 0.12965v0.46302a0.73554 0.73554 0 0 0-0.61383 0.84402 0.7276 0.7276 0 0 0 0.29104 0.4789l-1.3467 2.8787h0.87842l0.62177-1.3229a0.32015 0.32015 0 0 1 0.57944 0l0.64029 1.3229h0.889zm-0.44979-0.12965a0.45508 0.45508 0 0 1-0.45244-0.45773 0.45508 0.45508 0 0 1 0.76994-0.32279 0.45508 0.45508 0 0 1-0.3175 0.78052z" fill="#3870b2"/>
  <path d="m25.44 1.6484h3.1353v0.57415h-3.1353z" fill="#fff"/>
  <path d="m26.895 4.6011a0.45244 0.45244 0 1 1-0.45773 0.44979 0.46302 0.46302 0 0 1 0.13494-0.3175 0.45508 0.45508 0 0 1 0.32279-0.13229zm0.17992-0.26458v-0.47625a0.14817 0.14817 0 0 0-0.068792-0.12965 0.14288 0.14288 0 0 0-0.21431 0.12965v0.46302a0.73554 0.73554 0 0 0-0.61383 0.84402 0.7276 0.7276 0 0 0 0.29104 0.4789l-1.6907 3.638a0.39688 0.39688 0 0 0 0.0291 0.40481 0.39952 0.39952 0 0 0 0.69585-0.066146l1.1271-2.4209a0.32015 0.32015 0 0 1 0.57944 0l1.1562 2.4077a0.39997 0.39997 0 0 0 0.71967-0.34925l-1.741-3.6221a0.74348 0.74348 0 0 0-0.26458-1.2991" fill="#073042"/>
  <path class="cls-5" d="m28.112 2.1537a0.21167 0.21167 0 0 1-0.21696-0.20638 0.20373 0.20373 0 0 1 0.0635-0.1561 0.21431 0.21431 0 0 1 0.30162 0 0.22225 0.22225 0 0 1 0.0635 0.14817 0.21167 0.21167 0 0 1-0.21167 0.21167m-2.3521 0a0.21167 0.21167 0 0 1-0.21431-0.20902 0.20638 0.20638 0 0 1 0.0635-0.15346 0.21167 0.21167 0 0 1 0.30162-0.029104 0.21696 0.21696 0 0 1 0.01852 0.30427l-0.0291 0.029104a0.21431 0.21431 0 0 1-0.15082 0.060854m2.4289-1.2832 0.42333-0.73554a0.089958 0.089958 0 0 0-0.026458-0.11642 0.084667 0.084667 0 0 0-0.10319 0.026458l-0.44185 0.74877a2.667 2.667 0 0 0-2.1855 0l-0.43127-0.74877a0.089958 0.089958 0 0 0-0.076729-0.044979 0.097896 0.097896 0 0 0-0.07673 0.044979 0.089958 0.089958 0 0 0 0 0.089958l0.42598 0.73554a2.5188 2.5188 0 0 0-1.3018 2.0135h5.1065a2.5188 2.5188 0 0 0-1.3018-2.0135" fill="#3ddc84"/>
  <path d="m30.263 4.4529h-0.33602a0.042333 0.042333 0 0 0-0.0291 0.044979v5.2917a0.042333 0.042333 0 0 0 0.03969 0.042333h0.3466a0.73554 0.73554 0 0 0 0.73289-0.73554v-5.379a0.73554 0.73554 0 0 1-0.73554 0.73554z" fill="#073042"/>
 </g>
</svg>
