<?xml version="1.0" encoding="UTF-8"?>
<svg width="2048" height="2048" version="1.1" viewBox="0 0 541.87 541.87" xmlns="http://www.w3.org/2000/svg">
 <g transform="matrix(11.969 0 0 11.969 -1007.6 -984.85)" stroke-width=".027177">
  <path d="m112.91 96.736h1.3806l3.9352-3.9352 0.19295-1.6714c-7.3241-6.4653-18.502-5.7669-24.967 1.5572-1.7964 2.0328-3.0981 4.4542-3.8102 7.0741 0.43754-0.17936 0.924-0.20926 1.3806-0.08153l7.8703-1.299s0.3995-0.66311 0.60876-0.62234c3.5003-3.8455 9.3922-4.2939 13.436-1.0218z" fill="#ea4335"/>
  <path d="m123.83 99.761c-0.90498-3.3318-2.7611-6.3267-5.3429-8.615l-5.5223 5.5223c2.3318 1.9051 3.6607 4.7776 3.6036 7.7888v0.98107c2.7149 0 4.9162 2.2013 4.9162 4.9162 0 2.7149-2.2013 4.9162-4.9162 4.9162h-9.8325l-0.98107 0.99466v5.8973l0.98107 0.98108h9.8325c7.0605 0.0543 12.83-5.6256 12.884-12.686 0.0326-4.2885-2.079-8.2997-5.6228-10.697z" fill="#4285f4"/>
  <path d="m96.894 123.08h9.8325v-7.8703h-9.8325c-0.70116 0-1.3914-0.15219-2.0301-0.44298l-1.3806 0.42939-3.9623 3.9352-0.34514 1.3806c2.2203 1.6795 4.9326 2.5818 7.7182 2.5682z" fill="#34a853"/>
  <path d="m96.894 97.552c-7.0632 0.04076-12.751 5.7995-12.71 12.863 0.02446 3.9433 1.8643 7.6556 4.9923 10.058l5.7016-5.7016c-2.4731-1.117-3.5737-4.0303-2.4568-6.5034 1.117-2.4731 4.0303-3.5737 6.5034-2.4568 1.0898 0.4919 1.9621 1.367 2.4568 2.4568l5.7016-5.7016c-2.4242-3.1742-6.1963-5.0304-10.189-5.0141z" fill="#fbbc05"/>
 </g>
</svg>
