<svg width="1024" height="1024" inkscape:version="1.1.2 (0a00cf5339, 2022-02-04)" sodipodi:docname="redhat.svg" version="1.1" viewBox="0 0 270.93 270.93" xmlns="http://www.w3.org/2000/svg" xmlns:inkscape="http://www.inkscape.org/namespaces/inkscape" xmlns:sodipodi="http://sodipodi.sourceforge.net/DTD/sodipodi-0.dtd">
	<sodipodi:namedview bordercolor="#666666" borderopacity="1.0" inkscape:current-layer="layer1" inkscape:cx="397.07687" inkscape:cy="561.25984" inkscape:document-units="mm" inkscape:pagecheckerboard="0" inkscape:pageopacity="0.0" inkscape:pageshadow="2" inkscape:window-height="1011" inkscape:window-maximized="1" inkscape:window-width="1920" inkscape:window-x="0" inkscape:window-y="0" inkscape:zoom="0.69130191" pagecolor="#ffffff" showgrid="false" units="px"/>
	<g inkscape:groupmode="layer" inkscape:label="Camada 1">
		<g transform="matrix(5.246 0 0 5.246 -741.94 -671.67)" stroke-width=".26458">
			<path d="m175.67 156.77c3.3099 0 8.0989-0.68262 8.0989-4.6196a3.7042 3.7042 0 0 0-0.082-0.90488l-1.9711-8.5619c-0.45509-1.8838-0.85461-2.7384-4.1619-4.3921-2.5665-1.3123-8.1571-3.4793-9.8108-3.4793-1.5399 0-1.987 1.9844-3.8232 1.9844-1.7674 0-3.0798-1.4817-4.7334-1.4817-1.5875 0-2.622 1.0822-3.4211 3.3073 0 0-2.2251 6.2759-2.5109 7.1861a1.7013 1.7013 0 0 0-0.0582 0.5133c0 2.4394 9.6044 10.438 22.474 10.438m8.6069-3.011c0.45773 2.1669 0.45773 2.3945 0.45773 2.6802 0 3.7042-4.1645 5.76-9.6388 5.76-12.372 8e-3 -23.209-7.2416-23.209-12.033a4.8816 4.8816 0 0 1 0.39952-1.9394c-4.4503 0.22225-10.21 1.016-10.21 6.1013 0 8.3291 19.735 18.595 35.362 18.595 11.98 0 15.002-5.4187 15.002-9.697 0-3.3655-2.9104-7.1861-8.1571-9.4668" fill="#e00"/>
			<path d="m184.27 153.74c0.45773 2.1669 0.45773 2.3945 0.45773 2.6802 0 3.7042-4.1645 5.76-9.6388 5.76-12.372 8e-3 -23.209-7.2416-23.209-12.033a4.8816 4.8816 0 0 1 0.39952-1.9394l0.96838-2.3971a1.7013 1.7013 0 0 0-0.0582 0.50271c0 2.4394 9.6044 10.438 22.474 10.438 3.3099 0 8.0989-0.68263 8.0989-4.6196a3.7042 3.7042 0 0 0-0.082-0.90487z"/>
		</g>
	</g>
</svg>
