<?xml version="1.0" encoding="UTF-8"?>
<svg width="4096" height="4096" version="1.1" viewBox="0 0 1083.7 1083.7" xmlns="http://www.w3.org/2000/svg" xmlns:xlink="http://www.w3.org/1999/xlink">
 <defs>
  <linearGradient id="a" x1="-15.615" x2="-6.741" y1="-9.1083" y2="-9.1083" gradientTransform="matrix(-1.3295e-7 3.0391 -3.0391 -1.3295e-7 -8.1597 53.495)" gradientUnits="userSpaceOnUse">
   <stop stop-color="#97d9f6" offset="0"/>
   <stop stop-color="#0f80cc" offset=".92024"/>
   <stop stop-color="#0f80cc" offset="1"/>
  </linearGradient>
 </defs>
 <g transform="matrix(25.577 0 0 25.577 -5.5695 -62.38)">
  <path id="b" d="m32.182 4.5075h-26.328c-1.7645 0-3.2082 1.444-3.2082 3.2084v29.034c0 1.7643 1.4437 3.2081 3.2082 3.2081h17.34c-0.19681-8.6279 2.7495-25.372 8.9876-35.451z" fill="#0f80cc"/>
  <path id="c" d="m31.225 5.4435h-25.371c-1.2529 0-2.2725 1.0193-2.2725 2.2724v26.916c5.746-2.2053 14.37-4.1082 20.333-4.0217 1.1983-6.2656 4.72-18.545 7.3105-25.167z" fill="url(#a)"/>
  <path id="d" d="m38.323 3.5573c-1.8031-1.608-3.9863-0.96209-6.141 0.95018-0.31982 0.2841-0.63897 0.59928-0.95647 0.93596-3.686 3.9102-7.1074 11.153-8.1703 16.685 0.41407 0.83972 0.73753 1.9113 0.95052 2.7298 0.05457 0.21001 0.10385 0.40713 0.14321 0.57481 0.0936 0.39684 0.14387 0.65418 0.14387 0.65418s-0.03307-0.12505-0.16867-0.51825c-0.0258-0.07541-0.05457-0.15776-0.08864-0.25466-0.01455-0.04002-0.03473-0.08864-0.05689-0.14056-0.24044-0.55893-0.90554-1.7386-1.1982-2.2523-0.25036 0.73852-0.47162 1.4294-0.65683 2.0545 0.84501 1.5461 1.36 4.1957 1.36 4.1957s-0.04465-0.17171-0.25698-0.77103c-0.18852-0.53006-1.1275-2.1752-1.3499-2.5598-0.38047 1.4045-0.53165 2.3528-0.39532 2.5837 0.26468 0.44738 0.51676 1.2193 0.73812 2.073 0.50006 1.9232 0.84766 4.2644 0.84766 4.2644s0.01124 0.15514 0.0301 0.3939c-0.06945 1.615-0.02778 3.2895 0.09723 4.8029 0.1657 2.0035 0.47757 3.7246 0.87511 4.6457l0.26988-0.14714c-0.58374-1.8147-0.82087-4.193-0.71702-6.9358 0.1571-4.1924 1.1218-9.2481 2.9045-14.518 3.0116-7.9547 7.1901-14.337 11.014-17.385-3.4856 3.1479-8.2031 13.337-9.6153 17.111-1.5812 4.2254-2.7017 8.1905-3.3771 11.99 1.1652-3.5615 4.9325-5.0924 4.9325-5.0924s1.8478-2.2788 4.0071-5.5345c-1.2935 0.29501-3.4174 0.80003-4.1288 1.099-1.0494 0.4402-1.3322 0.59035-1.3322 0.59035s3.3992-2.07 6.3156-3.0073c4.0108-6.3169 8.3803-15.291 3.98-19.216" fill="#003b57"/>
 </g>
</svg>
