<svg width="1024" height="1024" inkscape:version="1.1.2 (0a00cf5339, 2022-02-04)" sodipodi:docname="symphony.svg" version="1.1" viewBox="0 0 270.93 270.93" xmlns="http://www.w3.org/2000/svg" xmlns:inkscape="http://www.inkscape.org/namespaces/inkscape" xmlns:sodipodi="http://sodipodi.sourceforge.net/DTD/sodipodi-0.dtd">
 <sodipodi:namedview bordercolor="#666666" borderopacity="1.0" inkscape:current-layer="layer1" inkscape:cx="397.07687" inkscape:cy="561.25984" inkscape:document-units="mm" inkscape:pagecheckerboard="0" inkscape:pageopacity="0.0" inkscape:pageshadow="2" inkscape:window-height="1011" inkscape:window-maximized="1" inkscape:window-width="1920" inkscape:window-x="0" inkscape:window-y="0" inkscape:zoom="0.69130191" pagecolor="#ffffff" showgrid="false" units="px"/>
 <g inkscape:groupmode="layer" inkscape:label="Camada 1">
  <g transform="matrix(15.159 0 0 15.159 -1419.5 -1651.6)" stroke-width=".26458">
   <circle cx="102.57" cy="117.88" r="8.5871" fill="#1a171b"/>
   <path d="m106.33 112.47c-0.87233 0.0304-1.6338 0.51118-2.2005 1.1763-0.62759 0.72919-1.0451 1.5941-1.3459 2.477-0.53816-0.44106-0.95329-1.012-1.8166-1.261-0.66728-0.19156-1.3682-0.11245-2.0127 0.36777-0.30533 0.22807-0.51567 0.57282-0.61568 0.89693-0.25903 0.84217 0.27226 1.5917 0.51356 1.8608l0.52758 0.56541c0.10874 0.11086 0.37068 0.40005 0.24262 0.81466-0.13838 0.45085-0.68183 0.74268-1.2393 0.5707-0.24897-0.0759-0.60669-0.26141-0.52652-0.52255 0.03307-0.10689 0.10954-0.1868 0.15055-0.27914 0.03757-0.0794 0.05556-0.1389 0.06694-0.17383 0.10186-0.33258-0.03731-0.76517-0.39344-0.87497-0.33232-0.10187-0.67231-0.0212-0.80407 0.40666-0.14949 0.48604 0.08308 1.3682 1.329 1.7523 1.4597 0.44846 2.6945-0.34634 2.8697-1.383 0.11033-0.64929-0.18283-1.1316-0.71993-1.7521l-0.43762-0.48392c-0.26511-0.26485-0.35613-0.71623-0.08176-1.0631 0.23152-0.29263 0.56118-0.41751 1.1012-0.27067 0.7882 0.21405 1.1396 0.76094 1.7259 1.202-0.24209 0.79402-0.40031 1.5909-0.54345 2.3056l-0.0873 0.53287c-0.4191 2.1982-0.73899 3.4052-1.5703 4.0981-0.16748 0.11907-0.40693 0.2974-0.76782 0.30983-0.18918 6e-3 -0.2503-0.12435-0.25294-0.18097-0.0045-0.13282 0.10742-0.19368 0.18177-0.25347 0.11112-0.0606 0.27914-0.16114 0.26776-0.48313-0.01217-0.38047-0.32729-0.71041-0.7829-0.69533-0.34131 0.0116-0.86148 0.33285-0.8419 0.92075 0.02037 0.60722 0.58632 1.0623 1.4396 1.0335 0.45614-0.0156 1.4748-0.20134 2.4786-1.3946 1.1684-1.3679 1.4952-2.9361 1.741-4.0838l0.27438-1.5153c0.1524 0.0183 0.31538 0.0304 0.49265 0.0347 1.4552 0.0307 2.1831-0.7231 2.1939-1.2713 7e-3 -0.33179-0.21776-0.65828-0.53261-0.65088-0.22542 6e-3 -0.50853 0.15637-0.57653 0.46805-0.0664 0.30586 0.46302 0.58182 0.0492 0.84984-0.29396 0.19024-0.82101 0.32438-1.5632 0.21538l0.13493-0.74587c0.27544-1.4145 0.61516-3.1544 1.904-3.1967 0.0939-5e-3 0.43762 4e-3 0.44555 0.23151 2e-3 0.0759-0.0164 0.0952-0.1053 0.26908-0.0905 0.13547-0.12462 0.25083-0.12038 0.38338 0.0124 0.36116 0.28707 0.59849 0.68421 0.5842 0.53181-0.0172 0.68474-0.53499 0.67601-0.80089-0.0214-0.62468-0.67998-1.0194-1.5518-0.99087z" fill="#fff"/>
  </g>
 </g>
</svg>
